<mxfile host="app.diagrams.net" agent="Mozilla/5.0 (Windows NT 10.0; Win64; x64) AppleWebKit/537.36 (KHTML, like Gecko) Chrome/134.0.0.0 Safari/537.36" version="26.2.4">
  <diagram name="Page-1" id="2a216829-ef6e-dabb-86c1-c78162f3ba2b">
    <mxGraphModel dx="1833" dy="1853" grid="1" gridSize="10" guides="1" tooltips="1" connect="1" arrows="1" fold="1" page="1" pageScale="1" pageWidth="850" pageHeight="1100" background="none" math="0" shadow="0">
      <root>
        <mxCell id="0" />
        <mxCell id="1" parent="0" />
        <mxCell id="stontRHDnFcF5iVTPhwj-18" value="Employee" style="shape=table;startSize=30;container=1;collapsible=1;childLayout=tableLayout;fixedRows=1;rowLines=0;fontStyle=1;align=center;resizeLast=1;html=1;fontFamily=Helvetica;fontSize=12;" parent="1" vertex="1">
          <mxGeometry x="680" y="800" width="200" height="280" as="geometry">
            <mxRectangle x="200" y="320" width="110" height="30" as="alternateBounds" />
          </mxGeometry>
        </mxCell>
        <mxCell id="stontRHDnFcF5iVTPhwj-19" value="" style="shape=tableRow;horizontal=0;startSize=0;swimlaneHead=0;swimlaneBody=0;fillColor=none;collapsible=0;dropTarget=0;points=[[0,0.5],[1,0.5]];portConstraint=eastwest;top=0;left=0;right=0;bottom=1;fontFamily=Helvetica;fontSize=12;" parent="stontRHDnFcF5iVTPhwj-18" vertex="1">
          <mxGeometry y="30" width="200" height="30" as="geometry" />
        </mxCell>
        <mxCell id="stontRHDnFcF5iVTPhwj-20" value="PK" style="shape=partialRectangle;connectable=0;fillColor=none;top=0;left=0;bottom=0;right=0;fontStyle=1;overflow=hidden;whiteSpace=wrap;html=1;fontFamily=Helvetica;fontSize=12;" parent="stontRHDnFcF5iVTPhwj-19" vertex="1">
          <mxGeometry width="40" height="30" as="geometry">
            <mxRectangle width="40" height="30" as="alternateBounds" />
          </mxGeometry>
        </mxCell>
        <mxCell id="stontRHDnFcF5iVTPhwj-21" value="eployee_id" style="shape=partialRectangle;connectable=0;fillColor=none;top=0;left=0;bottom=0;right=0;align=left;spacingLeft=6;fontStyle=5;overflow=hidden;whiteSpace=wrap;html=1;fontFamily=Helvetica;fontSize=12;" parent="stontRHDnFcF5iVTPhwj-19" vertex="1">
          <mxGeometry x="40" width="160" height="30" as="geometry">
            <mxRectangle width="160" height="30" as="alternateBounds" />
          </mxGeometry>
        </mxCell>
        <mxCell id="stontRHDnFcF5iVTPhwj-22" value="" style="shape=tableRow;horizontal=0;startSize=0;swimlaneHead=0;swimlaneBody=0;fillColor=none;collapsible=0;dropTarget=0;points=[[0,0.5],[1,0.5]];portConstraint=eastwest;top=0;left=0;right=0;bottom=0;fontFamily=Helvetica;fontSize=12;" parent="stontRHDnFcF5iVTPhwj-18" vertex="1">
          <mxGeometry y="60" width="200" height="30" as="geometry" />
        </mxCell>
        <mxCell id="stontRHDnFcF5iVTPhwj-23" value="" style="shape=partialRectangle;connectable=0;fillColor=none;top=0;left=0;bottom=0;right=0;editable=1;overflow=hidden;whiteSpace=wrap;html=1;fontFamily=Helvetica;fontSize=12;" parent="stontRHDnFcF5iVTPhwj-22" vertex="1">
          <mxGeometry width="40" height="30" as="geometry">
            <mxRectangle width="40" height="30" as="alternateBounds" />
          </mxGeometry>
        </mxCell>
        <mxCell id="stontRHDnFcF5iVTPhwj-24" value="employee_name" style="shape=partialRectangle;connectable=0;fillColor=none;top=0;left=0;bottom=0;right=0;align=left;spacingLeft=6;overflow=hidden;whiteSpace=wrap;html=1;fontFamily=Helvetica;fontSize=12;" parent="stontRHDnFcF5iVTPhwj-22" vertex="1">
          <mxGeometry x="40" width="160" height="30" as="geometry">
            <mxRectangle width="160" height="30" as="alternateBounds" />
          </mxGeometry>
        </mxCell>
        <mxCell id="stontRHDnFcF5iVTPhwj-25" value="" style="shape=tableRow;horizontal=0;startSize=0;swimlaneHead=0;swimlaneBody=0;fillColor=none;collapsible=0;dropTarget=0;points=[[0,0.5],[1,0.5]];portConstraint=eastwest;top=0;left=0;right=0;bottom=0;fontFamily=Helvetica;fontSize=12;" parent="stontRHDnFcF5iVTPhwj-18" vertex="1">
          <mxGeometry y="90" width="200" height="30" as="geometry" />
        </mxCell>
        <mxCell id="stontRHDnFcF5iVTPhwj-26" value="" style="shape=partialRectangle;connectable=0;fillColor=none;top=0;left=0;bottom=0;right=0;editable=1;overflow=hidden;whiteSpace=wrap;html=1;fontFamily=Helvetica;fontSize=12;" parent="stontRHDnFcF5iVTPhwj-25" vertex="1">
          <mxGeometry width="40" height="30" as="geometry">
            <mxRectangle width="40" height="30" as="alternateBounds" />
          </mxGeometry>
        </mxCell>
        <mxCell id="stontRHDnFcF5iVTPhwj-27" value="employee_surname" style="shape=partialRectangle;connectable=0;fillColor=none;top=0;left=0;bottom=0;right=0;align=left;spacingLeft=6;overflow=hidden;whiteSpace=wrap;html=1;fontFamily=Helvetica;fontSize=12;" parent="stontRHDnFcF5iVTPhwj-25" vertex="1">
          <mxGeometry x="40" width="160" height="30" as="geometry">
            <mxRectangle width="160" height="30" as="alternateBounds" />
          </mxGeometry>
        </mxCell>
        <mxCell id="stontRHDnFcF5iVTPhwj-28" value="" style="shape=tableRow;horizontal=0;startSize=0;swimlaneHead=0;swimlaneBody=0;fillColor=none;collapsible=0;dropTarget=0;points=[[0,0.5],[1,0.5]];portConstraint=eastwest;top=0;left=0;right=0;bottom=0;fontFamily=Helvetica;fontSize=12;" parent="stontRHDnFcF5iVTPhwj-18" vertex="1">
          <mxGeometry y="120" width="200" height="30" as="geometry" />
        </mxCell>
        <mxCell id="stontRHDnFcF5iVTPhwj-29" value="" style="shape=partialRectangle;connectable=0;fillColor=none;top=0;left=0;bottom=0;right=0;editable=1;overflow=hidden;whiteSpace=wrap;html=1;fontFamily=Helvetica;fontSize=12;" parent="stontRHDnFcF5iVTPhwj-28" vertex="1">
          <mxGeometry width="40" height="30" as="geometry">
            <mxRectangle width="40" height="30" as="alternateBounds" />
          </mxGeometry>
        </mxCell>
        <mxCell id="stontRHDnFcF5iVTPhwj-30" value="employee_position" style="shape=partialRectangle;connectable=0;fillColor=none;top=0;left=0;bottom=0;right=0;align=left;spacingLeft=6;overflow=hidden;whiteSpace=wrap;html=1;fontFamily=Helvetica;fontSize=12;" parent="stontRHDnFcF5iVTPhwj-28" vertex="1">
          <mxGeometry x="40" width="160" height="30" as="geometry">
            <mxRectangle width="160" height="30" as="alternateBounds" />
          </mxGeometry>
        </mxCell>
        <mxCell id="stontRHDnFcF5iVTPhwj-81" value="hourly_rate" style="shape=partialRectangle;connectable=0;fillColor=none;top=0;left=0;bottom=0;right=0;align=left;spacingLeft=6;overflow=hidden;whiteSpace=wrap;html=1;fontFamily=Helvetica;fontSize=12;" parent="1" vertex="1">
          <mxGeometry x="720" y="950" width="160" height="30" as="geometry">
            <mxRectangle width="160" height="30" as="alternateBounds" />
          </mxGeometry>
        </mxCell>
        <mxCell id="stontRHDnFcF5iVTPhwj-82" value="employee_phone_number" style="shape=partialRectangle;connectable=0;fillColor=none;top=0;left=0;bottom=0;right=0;align=left;spacingLeft=6;overflow=hidden;whiteSpace=wrap;html=1;fontFamily=Helvetica;fontSize=12;" parent="1" vertex="1">
          <mxGeometry x="720" y="980" width="160" height="30" as="geometry">
            <mxRectangle width="160" height="30" as="alternateBounds" />
          </mxGeometry>
        </mxCell>
        <mxCell id="stontRHDnFcF5iVTPhwj-83" value="Attendance" style="shape=table;startSize=30;container=1;collapsible=1;childLayout=tableLayout;fixedRows=1;rowLines=0;fontStyle=1;align=center;resizeLast=1;html=1;fontFamily=Helvetica;fontSize=12;" parent="1" vertex="1">
          <mxGeometry x="1020" y="1160" width="240" height="250" as="geometry">
            <mxRectangle x="200" y="320" width="110" height="30" as="alternateBounds" />
          </mxGeometry>
        </mxCell>
        <mxCell id="stontRHDnFcF5iVTPhwj-84" value="" style="shape=tableRow;horizontal=0;startSize=0;swimlaneHead=0;swimlaneBody=0;fillColor=none;collapsible=0;dropTarget=0;points=[[0,0.5],[1,0.5]];portConstraint=eastwest;top=0;left=0;right=0;bottom=1;fontFamily=Helvetica;fontSize=12;" parent="stontRHDnFcF5iVTPhwj-83" vertex="1">
          <mxGeometry y="30" width="240" height="30" as="geometry" />
        </mxCell>
        <mxCell id="stontRHDnFcF5iVTPhwj-85" value="PK" style="shape=partialRectangle;connectable=0;fillColor=none;top=0;left=0;bottom=0;right=0;fontStyle=1;overflow=hidden;whiteSpace=wrap;html=1;fontFamily=Helvetica;fontSize=12;" parent="stontRHDnFcF5iVTPhwj-84" vertex="1">
          <mxGeometry width="40" height="30" as="geometry">
            <mxRectangle width="40" height="30" as="alternateBounds" />
          </mxGeometry>
        </mxCell>
        <mxCell id="stontRHDnFcF5iVTPhwj-86" value="attendance_id" style="shape=partialRectangle;connectable=0;fillColor=none;top=0;left=0;bottom=0;right=0;align=left;spacingLeft=6;fontStyle=5;overflow=hidden;whiteSpace=wrap;html=1;fontFamily=Helvetica;fontSize=12;" parent="stontRHDnFcF5iVTPhwj-84" vertex="1">
          <mxGeometry x="40" width="200" height="30" as="geometry">
            <mxRectangle width="200" height="30" as="alternateBounds" />
          </mxGeometry>
        </mxCell>
        <mxCell id="stontRHDnFcF5iVTPhwj-272" value="" style="shape=tableRow;horizontal=0;startSize=0;swimlaneHead=0;swimlaneBody=0;fillColor=none;collapsible=0;dropTarget=0;points=[[0,0.5],[1,0.5]];portConstraint=eastwest;top=0;left=0;right=0;bottom=0;fontFamily=Helvetica;fontSize=12;" parent="stontRHDnFcF5iVTPhwj-83" vertex="1">
          <mxGeometry y="60" width="240" height="30" as="geometry" />
        </mxCell>
        <mxCell id="stontRHDnFcF5iVTPhwj-273" value="FK" style="shape=partialRectangle;connectable=0;fillColor=none;top=0;left=0;bottom=0;right=0;editable=1;overflow=hidden;whiteSpace=wrap;html=1;fontFamily=Helvetica;fontSize=12;" parent="stontRHDnFcF5iVTPhwj-272" vertex="1">
          <mxGeometry width="40" height="30" as="geometry">
            <mxRectangle width="40" height="30" as="alternateBounds" />
          </mxGeometry>
        </mxCell>
        <mxCell id="stontRHDnFcF5iVTPhwj-274" value="employee_id" style="shape=partialRectangle;connectable=0;fillColor=none;top=0;left=0;bottom=0;right=0;align=left;spacingLeft=6;overflow=hidden;whiteSpace=wrap;html=1;fontFamily=Helvetica;fontSize=12;" parent="stontRHDnFcF5iVTPhwj-272" vertex="1">
          <mxGeometry x="40" width="200" height="30" as="geometry">
            <mxRectangle width="200" height="30" as="alternateBounds" />
          </mxGeometry>
        </mxCell>
        <mxCell id="stontRHDnFcF5iVTPhwj-87" value="" style="shape=tableRow;horizontal=0;startSize=0;swimlaneHead=0;swimlaneBody=0;fillColor=none;collapsible=0;dropTarget=0;points=[[0,0.5],[1,0.5]];portConstraint=eastwest;top=0;left=0;right=0;bottom=0;fontFamily=Helvetica;fontSize=12;" parent="stontRHDnFcF5iVTPhwj-83" vertex="1">
          <mxGeometry y="90" width="240" height="30" as="geometry" />
        </mxCell>
        <mxCell id="stontRHDnFcF5iVTPhwj-88" value="FK" style="shape=partialRectangle;connectable=0;fillColor=none;top=0;left=0;bottom=0;right=0;editable=1;overflow=hidden;whiteSpace=wrap;html=1;fontFamily=Helvetica;fontSize=12;" parent="stontRHDnFcF5iVTPhwj-87" vertex="1">
          <mxGeometry width="40" height="30" as="geometry">
            <mxRectangle width="40" height="30" as="alternateBounds" />
          </mxGeometry>
        </mxCell>
        <mxCell id="stontRHDnFcF5iVTPhwj-89" value="task_id" style="shape=partialRectangle;connectable=0;fillColor=none;top=0;left=0;bottom=0;right=0;align=left;spacingLeft=6;overflow=hidden;whiteSpace=wrap;html=1;fontFamily=Helvetica;fontSize=12;" parent="stontRHDnFcF5iVTPhwj-87" vertex="1">
          <mxGeometry x="40" width="200" height="30" as="geometry">
            <mxRectangle width="200" height="30" as="alternateBounds" />
          </mxGeometry>
        </mxCell>
        <mxCell id="stontRHDnFcF5iVTPhwj-93" value="" style="shape=tableRow;horizontal=0;startSize=0;swimlaneHead=0;swimlaneBody=0;fillColor=none;collapsible=0;dropTarget=0;points=[[0,0.5],[1,0.5]];portConstraint=eastwest;top=0;left=0;right=0;bottom=0;fontFamily=Helvetica;fontSize=12;" parent="stontRHDnFcF5iVTPhwj-83" vertex="1">
          <mxGeometry y="120" width="240" height="30" as="geometry" />
        </mxCell>
        <mxCell id="stontRHDnFcF5iVTPhwj-94" value="" style="shape=partialRectangle;connectable=0;fillColor=none;top=0;left=0;bottom=0;right=0;editable=1;overflow=hidden;whiteSpace=wrap;html=1;fontFamily=Helvetica;fontSize=12;" parent="stontRHDnFcF5iVTPhwj-93" vertex="1">
          <mxGeometry width="40" height="30" as="geometry">
            <mxRectangle width="40" height="30" as="alternateBounds" />
          </mxGeometry>
        </mxCell>
        <mxCell id="stontRHDnFcF5iVTPhwj-95" value="attendance_start_time" style="shape=partialRectangle;connectable=0;fillColor=none;top=0;left=0;bottom=0;right=0;align=left;spacingLeft=6;overflow=hidden;whiteSpace=wrap;html=1;fontFamily=Helvetica;fontSize=12;" parent="stontRHDnFcF5iVTPhwj-93" vertex="1">
          <mxGeometry x="40" width="200" height="30" as="geometry">
            <mxRectangle width="200" height="30" as="alternateBounds" />
          </mxGeometry>
        </mxCell>
        <mxCell id="stontRHDnFcF5iVTPhwj-97" value="attendance_end_time" style="shape=partialRectangle;connectable=0;fillColor=none;top=0;left=0;bottom=0;right=0;align=left;spacingLeft=6;overflow=hidden;whiteSpace=wrap;html=1;fontFamily=Helvetica;fontSize=12;" parent="1" vertex="1">
          <mxGeometry x="1060" y="1310" width="200" height="30" as="geometry">
            <mxRectangle width="160" height="30" as="alternateBounds" />
          </mxGeometry>
        </mxCell>
        <mxCell id="stontRHDnFcF5iVTPhwj-99" value="&lt;font&gt;&lt;font&gt;attendance_status&amp;nbsp;&lt;/font&gt;&lt;span style=&quot;background-color: transparent; color: light-dark(rgb(0, 0, 0), rgb(255, 255, 255));&quot;&gt;(on_time / late)&lt;/span&gt;&lt;/font&gt;" style="shape=partialRectangle;connectable=0;fillColor=none;top=0;left=0;bottom=0;right=0;align=left;spacingLeft=6;overflow=hidden;whiteSpace=wrap;html=1;fontFamily=Helvetica;fontSize=12;" parent="1" vertex="1">
          <mxGeometry x="1060" y="1340" width="200" height="30" as="geometry">
            <mxRectangle width="160" height="30" as="alternateBounds" />
          </mxGeometry>
        </mxCell>
        <mxCell id="stontRHDnFcF5iVTPhwj-100" value="Project" style="shape=table;startSize=30;container=1;collapsible=1;childLayout=tableLayout;fixedRows=1;rowLines=0;fontStyle=1;align=center;resizeLast=1;html=1;fontFamily=Helvetica;fontSize=12;" parent="1" vertex="1">
          <mxGeometry x="1400" y="800" width="200" height="400" as="geometry">
            <mxRectangle x="200" y="320" width="110" height="30" as="alternateBounds" />
          </mxGeometry>
        </mxCell>
        <mxCell id="stontRHDnFcF5iVTPhwj-101" value="" style="shape=tableRow;horizontal=0;startSize=0;swimlaneHead=0;swimlaneBody=0;fillColor=none;collapsible=0;dropTarget=0;points=[[0,0.5],[1,0.5]];portConstraint=eastwest;top=0;left=0;right=0;bottom=1;fontFamily=Helvetica;fontSize=12;" parent="stontRHDnFcF5iVTPhwj-100" vertex="1">
          <mxGeometry y="30" width="200" height="30" as="geometry" />
        </mxCell>
        <mxCell id="stontRHDnFcF5iVTPhwj-102" value="PK" style="shape=partialRectangle;connectable=0;fillColor=none;top=0;left=0;bottom=0;right=0;fontStyle=1;overflow=hidden;whiteSpace=wrap;html=1;fontFamily=Helvetica;fontSize=12;" parent="stontRHDnFcF5iVTPhwj-101" vertex="1">
          <mxGeometry width="40" height="30" as="geometry">
            <mxRectangle width="40" height="30" as="alternateBounds" />
          </mxGeometry>
        </mxCell>
        <mxCell id="stontRHDnFcF5iVTPhwj-103" value="project_id" style="shape=partialRectangle;connectable=0;fillColor=none;top=0;left=0;bottom=0;right=0;align=left;spacingLeft=6;fontStyle=5;overflow=hidden;whiteSpace=wrap;html=1;fontFamily=Helvetica;fontSize=12;" parent="stontRHDnFcF5iVTPhwj-101" vertex="1">
          <mxGeometry x="40" width="160" height="30" as="geometry">
            <mxRectangle width="160" height="30" as="alternateBounds" />
          </mxGeometry>
        </mxCell>
        <mxCell id="stontRHDnFcF5iVTPhwj-104" value="" style="shape=tableRow;horizontal=0;startSize=0;swimlaneHead=0;swimlaneBody=0;fillColor=none;collapsible=0;dropTarget=0;points=[[0,0.5],[1,0.5]];portConstraint=eastwest;top=0;left=0;right=0;bottom=0;fontFamily=Helvetica;fontSize=12;" parent="stontRHDnFcF5iVTPhwj-100" vertex="1">
          <mxGeometry y="60" width="200" height="30" as="geometry" />
        </mxCell>
        <mxCell id="stontRHDnFcF5iVTPhwj-105" value="" style="shape=partialRectangle;connectable=0;fillColor=none;top=0;left=0;bottom=0;right=0;editable=1;overflow=hidden;whiteSpace=wrap;html=1;fontFamily=Helvetica;fontSize=12;" parent="stontRHDnFcF5iVTPhwj-104" vertex="1">
          <mxGeometry width="40" height="30" as="geometry">
            <mxRectangle width="40" height="30" as="alternateBounds" />
          </mxGeometry>
        </mxCell>
        <mxCell id="stontRHDnFcF5iVTPhwj-106" value="project_name" style="shape=partialRectangle;connectable=0;fillColor=none;top=0;left=0;bottom=0;right=0;align=left;spacingLeft=6;overflow=hidden;whiteSpace=wrap;html=1;fontFamily=Helvetica;fontSize=12;" parent="stontRHDnFcF5iVTPhwj-104" vertex="1">
          <mxGeometry x="40" width="160" height="30" as="geometry">
            <mxRectangle width="160" height="30" as="alternateBounds" />
          </mxGeometry>
        </mxCell>
        <mxCell id="stontRHDnFcF5iVTPhwj-107" value="" style="shape=tableRow;horizontal=0;startSize=0;swimlaneHead=0;swimlaneBody=0;fillColor=none;collapsible=0;dropTarget=0;points=[[0,0.5],[1,0.5]];portConstraint=eastwest;top=0;left=0;right=0;bottom=0;fontFamily=Helvetica;fontSize=12;" parent="stontRHDnFcF5iVTPhwj-100" vertex="1">
          <mxGeometry y="90" width="200" height="30" as="geometry" />
        </mxCell>
        <mxCell id="stontRHDnFcF5iVTPhwj-108" value="" style="shape=partialRectangle;connectable=0;fillColor=none;top=0;left=0;bottom=0;right=0;editable=1;overflow=hidden;whiteSpace=wrap;html=1;fontFamily=Helvetica;fontSize=12;" parent="stontRHDnFcF5iVTPhwj-107" vertex="1">
          <mxGeometry width="40" height="30" as="geometry">
            <mxRectangle width="40" height="30" as="alternateBounds" />
          </mxGeometry>
        </mxCell>
        <mxCell id="stontRHDnFcF5iVTPhwj-109" value="project_city" style="shape=partialRectangle;connectable=0;fillColor=none;top=0;left=0;bottom=0;right=0;align=left;spacingLeft=6;overflow=hidden;whiteSpace=wrap;html=1;fontFamily=Helvetica;fontSize=12;" parent="stontRHDnFcF5iVTPhwj-107" vertex="1">
          <mxGeometry x="40" width="160" height="30" as="geometry">
            <mxRectangle width="160" height="30" as="alternateBounds" />
          </mxGeometry>
        </mxCell>
        <mxCell id="stontRHDnFcF5iVTPhwj-110" value="" style="shape=tableRow;horizontal=0;startSize=0;swimlaneHead=0;swimlaneBody=0;fillColor=none;collapsible=0;dropTarget=0;points=[[0,0.5],[1,0.5]];portConstraint=eastwest;top=0;left=0;right=0;bottom=0;fontFamily=Helvetica;fontSize=12;" parent="stontRHDnFcF5iVTPhwj-100" vertex="1">
          <mxGeometry y="120" width="200" height="30" as="geometry" />
        </mxCell>
        <mxCell id="stontRHDnFcF5iVTPhwj-111" value="" style="shape=partialRectangle;connectable=0;fillColor=none;top=0;left=0;bottom=0;right=0;editable=1;overflow=hidden;whiteSpace=wrap;html=1;fontFamily=Helvetica;fontSize=12;" parent="stontRHDnFcF5iVTPhwj-110" vertex="1">
          <mxGeometry width="40" height="30" as="geometry">
            <mxRectangle width="40" height="30" as="alternateBounds" />
          </mxGeometry>
        </mxCell>
        <mxCell id="stontRHDnFcF5iVTPhwj-112" value="project_street" style="shape=partialRectangle;connectable=0;fillColor=none;top=0;left=0;bottom=0;right=0;align=left;spacingLeft=6;overflow=hidden;whiteSpace=wrap;html=1;fontFamily=Helvetica;fontSize=12;" parent="stontRHDnFcF5iVTPhwj-110" vertex="1">
          <mxGeometry x="40" width="160" height="30" as="geometry">
            <mxRectangle width="160" height="30" as="alternateBounds" />
          </mxGeometry>
        </mxCell>
        <mxCell id="stontRHDnFcF5iVTPhwj-114" value="project_end_date" style="shape=partialRectangle;connectable=0;fillColor=none;top=0;left=0;bottom=0;right=0;align=left;spacingLeft=6;overflow=hidden;whiteSpace=wrap;html=1;fontFamily=Helvetica;fontSize=12;" parent="1" vertex="1">
          <mxGeometry x="1440" y="1010" width="160" height="30" as="geometry">
            <mxRectangle width="160" height="30" as="alternateBounds" />
          </mxGeometry>
        </mxCell>
        <mxCell id="stontRHDnFcF5iVTPhwj-115" value="project_status&lt;div&gt;(planned / in_progress / paused / completed)&lt;/div&gt;" style="shape=partialRectangle;connectable=0;fillColor=none;top=0;left=0;bottom=0;right=0;align=left;spacingLeft=6;overflow=hidden;whiteSpace=wrap;html=1;fontFamily=Helvetica;fontSize=12;" parent="1" vertex="1">
          <mxGeometry x="1440" y="1070" width="160" height="50" as="geometry">
            <mxRectangle width="160" height="30" as="alternateBounds" />
          </mxGeometry>
        </mxCell>
        <mxCell id="stontRHDnFcF5iVTPhwj-124" value="project_budget" style="shape=partialRectangle;connectable=0;fillColor=none;top=0;left=0;bottom=0;right=0;align=left;spacingLeft=6;overflow=hidden;whiteSpace=wrap;html=1;fontFamily=Helvetica;fontSize=12;" parent="1" vertex="1">
          <mxGeometry x="1440" y="1040" width="160" height="30" as="geometry">
            <mxRectangle width="160" height="30" as="alternateBounds" />
          </mxGeometry>
        </mxCell>
        <mxCell id="stontRHDnFcF5iVTPhwj-141" value="Tool Borrow Start" style="shape=table;startSize=30;container=1;collapsible=1;childLayout=tableLayout;fixedRows=1;rowLines=0;fontStyle=1;align=center;resizeLast=1;html=1;fontFamily=Helvetica;fontSize=12;" parent="1" vertex="1">
          <mxGeometry x="400" y="480" width="200" height="240" as="geometry">
            <mxRectangle x="200" y="320" width="110" height="30" as="alternateBounds" />
          </mxGeometry>
        </mxCell>
        <mxCell id="stontRHDnFcF5iVTPhwj-142" value="" style="shape=tableRow;horizontal=0;startSize=0;swimlaneHead=0;swimlaneBody=0;fillColor=none;collapsible=0;dropTarget=0;points=[[0,0.5],[1,0.5]];portConstraint=eastwest;top=0;left=0;right=0;bottom=1;fontFamily=Helvetica;fontSize=12;" parent="stontRHDnFcF5iVTPhwj-141" vertex="1">
          <mxGeometry y="30" width="200" height="30" as="geometry" />
        </mxCell>
        <mxCell id="stontRHDnFcF5iVTPhwj-143" value="PK" style="shape=partialRectangle;connectable=0;fillColor=none;top=0;left=0;bottom=0;right=0;fontStyle=1;overflow=hidden;whiteSpace=wrap;html=1;fontFamily=Helvetica;fontSize=12;" parent="stontRHDnFcF5iVTPhwj-142" vertex="1">
          <mxGeometry width="40" height="30" as="geometry">
            <mxRectangle width="40" height="30" as="alternateBounds" />
          </mxGeometry>
        </mxCell>
        <mxCell id="stontRHDnFcF5iVTPhwj-144" value="tool_borrow_id" style="shape=partialRectangle;connectable=0;fillColor=none;top=0;left=0;bottom=0;right=0;align=left;spacingLeft=6;fontStyle=5;overflow=hidden;whiteSpace=wrap;html=1;fontFamily=Helvetica;fontSize=12;" parent="stontRHDnFcF5iVTPhwj-142" vertex="1">
          <mxGeometry x="40" width="160" height="30" as="geometry">
            <mxRectangle width="160" height="30" as="alternateBounds" />
          </mxGeometry>
        </mxCell>
        <mxCell id="stontRHDnFcF5iVTPhwj-145" value="" style="shape=tableRow;horizontal=0;startSize=0;swimlaneHead=0;swimlaneBody=0;fillColor=none;collapsible=0;dropTarget=0;points=[[0,0.5],[1,0.5]];portConstraint=eastwest;top=0;left=0;right=0;bottom=0;fontFamily=Helvetica;fontSize=12;" parent="stontRHDnFcF5iVTPhwj-141" vertex="1">
          <mxGeometry y="60" width="200" height="30" as="geometry" />
        </mxCell>
        <mxCell id="stontRHDnFcF5iVTPhwj-146" value="FK" style="shape=partialRectangle;connectable=0;fillColor=none;top=0;left=0;bottom=0;right=0;editable=1;overflow=hidden;whiteSpace=wrap;html=1;fontFamily=Helvetica;fontSize=12;" parent="stontRHDnFcF5iVTPhwj-145" vertex="1">
          <mxGeometry width="40" height="30" as="geometry">
            <mxRectangle width="40" height="30" as="alternateBounds" />
          </mxGeometry>
        </mxCell>
        <mxCell id="stontRHDnFcF5iVTPhwj-147" value="&lt;font&gt;tool_id&lt;/font&gt;" style="shape=partialRectangle;connectable=0;fillColor=none;top=0;left=0;bottom=0;right=0;align=left;spacingLeft=6;overflow=hidden;whiteSpace=wrap;html=1;fontFamily=Helvetica;fontSize=12;" parent="stontRHDnFcF5iVTPhwj-145" vertex="1">
          <mxGeometry x="40" width="160" height="30" as="geometry">
            <mxRectangle width="160" height="30" as="alternateBounds" />
          </mxGeometry>
        </mxCell>
        <mxCell id="stontRHDnFcF5iVTPhwj-148" value="" style="shape=tableRow;horizontal=0;startSize=0;swimlaneHead=0;swimlaneBody=0;fillColor=none;collapsible=0;dropTarget=0;points=[[0,0.5],[1,0.5]];portConstraint=eastwest;top=0;left=0;right=0;bottom=0;fontFamily=Helvetica;fontSize=12;" parent="stontRHDnFcF5iVTPhwj-141" vertex="1">
          <mxGeometry y="90" width="200" height="30" as="geometry" />
        </mxCell>
        <mxCell id="stontRHDnFcF5iVTPhwj-149" value="FK" style="shape=partialRectangle;connectable=0;fillColor=none;top=0;left=0;bottom=0;right=0;editable=1;overflow=hidden;whiteSpace=wrap;html=1;fontFamily=Helvetica;fontSize=12;" parent="stontRHDnFcF5iVTPhwj-148" vertex="1">
          <mxGeometry width="40" height="30" as="geometry">
            <mxRectangle width="40" height="30" as="alternateBounds" />
          </mxGeometry>
        </mxCell>
        <mxCell id="stontRHDnFcF5iVTPhwj-150" value="employee_id" style="shape=partialRectangle;connectable=0;fillColor=none;top=0;left=0;bottom=0;right=0;align=left;spacingLeft=6;overflow=hidden;whiteSpace=wrap;html=1;fontFamily=Helvetica;fontSize=12;" parent="stontRHDnFcF5iVTPhwj-148" vertex="1">
          <mxGeometry x="40" width="160" height="30" as="geometry">
            <mxRectangle width="160" height="30" as="alternateBounds" />
          </mxGeometry>
        </mxCell>
        <mxCell id="stontRHDnFcF5iVTPhwj-151" value="" style="shape=tableRow;horizontal=0;startSize=0;swimlaneHead=0;swimlaneBody=0;fillColor=none;collapsible=0;dropTarget=0;points=[[0,0.5],[1,0.5]];portConstraint=eastwest;top=0;left=0;right=0;bottom=0;fontFamily=Helvetica;fontSize=12;" parent="stontRHDnFcF5iVTPhwj-141" vertex="1">
          <mxGeometry y="120" width="200" height="30" as="geometry" />
        </mxCell>
        <mxCell id="stontRHDnFcF5iVTPhwj-152" value="FK" style="shape=partialRectangle;connectable=0;fillColor=none;top=0;left=0;bottom=0;right=0;editable=1;overflow=hidden;whiteSpace=wrap;html=1;fontFamily=Helvetica;fontSize=12;" parent="stontRHDnFcF5iVTPhwj-151" vertex="1">
          <mxGeometry width="40" height="30" as="geometry">
            <mxRectangle width="40" height="30" as="alternateBounds" />
          </mxGeometry>
        </mxCell>
        <mxCell id="stontRHDnFcF5iVTPhwj-153" value="project_id" style="shape=partialRectangle;connectable=0;fillColor=none;top=0;left=0;bottom=0;right=0;align=left;spacingLeft=6;overflow=hidden;whiteSpace=wrap;html=1;fontFamily=Helvetica;fontSize=12;" parent="stontRHDnFcF5iVTPhwj-151" vertex="1">
          <mxGeometry x="40" width="160" height="30" as="geometry">
            <mxRectangle width="160" height="30" as="alternateBounds" />
          </mxGeometry>
        </mxCell>
        <mxCell id="stontRHDnFcF5iVTPhwj-155" value="tool_borrow_date" style="shape=partialRectangle;connectable=0;fillColor=none;top=0;left=0;bottom=0;right=0;align=left;spacingLeft=6;overflow=hidden;whiteSpace=wrap;html=1;fontFamily=Helvetica;fontSize=12;" parent="1" vertex="1">
          <mxGeometry x="440" y="630" width="160" height="30" as="geometry">
            <mxRectangle width="160" height="30" as="alternateBounds" />
          </mxGeometry>
        </mxCell>
        <mxCell id="stontRHDnFcF5iVTPhwj-195" value="Warehouse" style="shape=table;startSize=30;container=1;collapsible=1;childLayout=tableLayout;fixedRows=1;rowLines=0;fontStyle=1;align=center;resizeLast=1;html=1;fontFamily=Helvetica;fontSize=12;" parent="1" vertex="1">
          <mxGeometry x="860" y="-240" width="200" height="240" as="geometry">
            <mxRectangle x="200" y="320" width="110" height="30" as="alternateBounds" />
          </mxGeometry>
        </mxCell>
        <mxCell id="stontRHDnFcF5iVTPhwj-196" value="" style="shape=tableRow;horizontal=0;startSize=0;swimlaneHead=0;swimlaneBody=0;fillColor=none;collapsible=0;dropTarget=0;points=[[0,0.5],[1,0.5]];portConstraint=eastwest;top=0;left=0;right=0;bottom=1;fontFamily=Helvetica;fontSize=12;" parent="stontRHDnFcF5iVTPhwj-195" vertex="1">
          <mxGeometry y="30" width="200" height="30" as="geometry" />
        </mxCell>
        <mxCell id="stontRHDnFcF5iVTPhwj-197" value="PK" style="shape=partialRectangle;connectable=0;fillColor=none;top=0;left=0;bottom=0;right=0;fontStyle=1;overflow=hidden;whiteSpace=wrap;html=1;fontFamily=Helvetica;fontSize=12;" parent="stontRHDnFcF5iVTPhwj-196" vertex="1">
          <mxGeometry width="40" height="30" as="geometry">
            <mxRectangle width="40" height="30" as="alternateBounds" />
          </mxGeometry>
        </mxCell>
        <mxCell id="stontRHDnFcF5iVTPhwj-198" value="warehouse_id" style="shape=partialRectangle;connectable=0;fillColor=none;top=0;left=0;bottom=0;right=0;align=left;spacingLeft=6;fontStyle=5;overflow=hidden;whiteSpace=wrap;html=1;fontFamily=Helvetica;fontSize=12;" parent="stontRHDnFcF5iVTPhwj-196" vertex="1">
          <mxGeometry x="40" width="160" height="30" as="geometry">
            <mxRectangle width="160" height="30" as="alternateBounds" />
          </mxGeometry>
        </mxCell>
        <mxCell id="stontRHDnFcF5iVTPhwj-199" value="" style="shape=tableRow;horizontal=0;startSize=0;swimlaneHead=0;swimlaneBody=0;fillColor=none;collapsible=0;dropTarget=0;points=[[0,0.5],[1,0.5]];portConstraint=eastwest;top=0;left=0;right=0;bottom=0;fontFamily=Helvetica;fontSize=12;" parent="stontRHDnFcF5iVTPhwj-195" vertex="1">
          <mxGeometry y="60" width="200" height="30" as="geometry" />
        </mxCell>
        <mxCell id="stontRHDnFcF5iVTPhwj-200" value="FK" style="shape=partialRectangle;connectable=0;fillColor=none;top=0;left=0;bottom=0;right=0;editable=1;overflow=hidden;whiteSpace=wrap;html=1;fontFamily=Helvetica;fontSize=12;" parent="stontRHDnFcF5iVTPhwj-199" vertex="1">
          <mxGeometry width="40" height="30" as="geometry">
            <mxRectangle width="40" height="30" as="alternateBounds" />
          </mxGeometry>
        </mxCell>
        <mxCell id="stontRHDnFcF5iVTPhwj-201" value="employee_id" style="shape=partialRectangle;connectable=0;fillColor=none;top=0;left=0;bottom=0;right=0;align=left;spacingLeft=6;overflow=hidden;whiteSpace=wrap;html=1;fontFamily=Helvetica;fontSize=12;" parent="stontRHDnFcF5iVTPhwj-199" vertex="1">
          <mxGeometry x="40" width="160" height="30" as="geometry">
            <mxRectangle width="160" height="30" as="alternateBounds" />
          </mxGeometry>
        </mxCell>
        <mxCell id="stontRHDnFcF5iVTPhwj-202" value="" style="shape=tableRow;horizontal=0;startSize=0;swimlaneHead=0;swimlaneBody=0;fillColor=none;collapsible=0;dropTarget=0;points=[[0,0.5],[1,0.5]];portConstraint=eastwest;top=0;left=0;right=0;bottom=0;fontFamily=Helvetica;fontSize=12;" parent="stontRHDnFcF5iVTPhwj-195" vertex="1">
          <mxGeometry y="90" width="200" height="30" as="geometry" />
        </mxCell>
        <mxCell id="stontRHDnFcF5iVTPhwj-203" value="" style="shape=partialRectangle;connectable=0;fillColor=none;top=0;left=0;bottom=0;right=0;editable=1;overflow=hidden;whiteSpace=wrap;html=1;fontFamily=Helvetica;fontSize=12;" parent="stontRHDnFcF5iVTPhwj-202" vertex="1">
          <mxGeometry width="40" height="30" as="geometry">
            <mxRectangle width="40" height="30" as="alternateBounds" />
          </mxGeometry>
        </mxCell>
        <mxCell id="stontRHDnFcF5iVTPhwj-204" value="warehouse_city" style="shape=partialRectangle;connectable=0;fillColor=none;top=0;left=0;bottom=0;right=0;align=left;spacingLeft=6;overflow=hidden;whiteSpace=wrap;html=1;fontFamily=Helvetica;fontSize=12;" parent="stontRHDnFcF5iVTPhwj-202" vertex="1">
          <mxGeometry x="40" width="160" height="30" as="geometry">
            <mxRectangle width="160" height="30" as="alternateBounds" />
          </mxGeometry>
        </mxCell>
        <mxCell id="stontRHDnFcF5iVTPhwj-205" value="" style="shape=tableRow;horizontal=0;startSize=0;swimlaneHead=0;swimlaneBody=0;fillColor=none;collapsible=0;dropTarget=0;points=[[0,0.5],[1,0.5]];portConstraint=eastwest;top=0;left=0;right=0;bottom=0;fontFamily=Helvetica;fontSize=12;" parent="stontRHDnFcF5iVTPhwj-195" vertex="1">
          <mxGeometry y="120" width="200" height="30" as="geometry" />
        </mxCell>
        <mxCell id="stontRHDnFcF5iVTPhwj-206" value="" style="shape=partialRectangle;connectable=0;fillColor=none;top=0;left=0;bottom=0;right=0;editable=1;overflow=hidden;whiteSpace=wrap;html=1;fontFamily=Helvetica;fontSize=12;" parent="stontRHDnFcF5iVTPhwj-205" vertex="1">
          <mxGeometry width="40" height="30" as="geometry">
            <mxRectangle width="40" height="30" as="alternateBounds" />
          </mxGeometry>
        </mxCell>
        <mxCell id="stontRHDnFcF5iVTPhwj-207" value="" style="shape=partialRectangle;connectable=0;fillColor=none;top=0;left=0;bottom=0;right=0;align=left;spacingLeft=6;overflow=hidden;whiteSpace=wrap;html=1;fontFamily=Helvetica;fontSize=12;" parent="stontRHDnFcF5iVTPhwj-205" vertex="1">
          <mxGeometry x="40" width="160" height="30" as="geometry">
            <mxRectangle width="160" height="30" as="alternateBounds" />
          </mxGeometry>
        </mxCell>
        <mxCell id="stontRHDnFcF5iVTPhwj-208" value="warehouse_street" style="shape=partialRectangle;connectable=0;fillColor=none;top=0;left=0;bottom=0;right=0;align=left;spacingLeft=6;overflow=hidden;whiteSpace=wrap;html=1;fontFamily=Helvetica;fontSize=12;" parent="1" vertex="1">
          <mxGeometry x="900" y="-120" width="160" height="30" as="geometry">
            <mxRectangle width="160" height="30" as="alternateBounds" />
          </mxGeometry>
        </mxCell>
        <mxCell id="stontRHDnFcF5iVTPhwj-243" value="Material" style="shape=table;startSize=30;container=1;collapsible=1;childLayout=tableLayout;fixedRows=1;rowLines=0;fontStyle=1;align=center;resizeLast=1;html=1;fontFamily=Helvetica;fontSize=12;" parent="1" vertex="1">
          <mxGeometry x="1620" y="-240" width="200" height="240" as="geometry">
            <mxRectangle x="200" y="320" width="110" height="30" as="alternateBounds" />
          </mxGeometry>
        </mxCell>
        <mxCell id="stontRHDnFcF5iVTPhwj-244" value="" style="shape=tableRow;horizontal=0;startSize=0;swimlaneHead=0;swimlaneBody=0;fillColor=none;collapsible=0;dropTarget=0;points=[[0,0.5],[1,0.5]];portConstraint=eastwest;top=0;left=0;right=0;bottom=1;fontFamily=Helvetica;fontSize=12;" parent="stontRHDnFcF5iVTPhwj-243" vertex="1">
          <mxGeometry y="30" width="200" height="30" as="geometry" />
        </mxCell>
        <mxCell id="stontRHDnFcF5iVTPhwj-245" value="PK" style="shape=partialRectangle;connectable=0;fillColor=none;top=0;left=0;bottom=0;right=0;fontStyle=1;overflow=hidden;whiteSpace=wrap;html=1;fontFamily=Helvetica;fontSize=12;" parent="stontRHDnFcF5iVTPhwj-244" vertex="1">
          <mxGeometry width="40" height="30" as="geometry">
            <mxRectangle width="40" height="30" as="alternateBounds" />
          </mxGeometry>
        </mxCell>
        <mxCell id="stontRHDnFcF5iVTPhwj-246" value="material_id" style="shape=partialRectangle;connectable=0;fillColor=none;top=0;left=0;bottom=0;right=0;align=left;spacingLeft=6;fontStyle=5;overflow=hidden;whiteSpace=wrap;html=1;fontFamily=Helvetica;fontSize=12;" parent="stontRHDnFcF5iVTPhwj-244" vertex="1">
          <mxGeometry x="40" width="160" height="30" as="geometry">
            <mxRectangle width="160" height="30" as="alternateBounds" />
          </mxGeometry>
        </mxCell>
        <mxCell id="stontRHDnFcF5iVTPhwj-247" value="" style="shape=tableRow;horizontal=0;startSize=0;swimlaneHead=0;swimlaneBody=0;fillColor=none;collapsible=0;dropTarget=0;points=[[0,0.5],[1,0.5]];portConstraint=eastwest;top=0;left=0;right=0;bottom=0;fontFamily=Helvetica;fontSize=12;" parent="stontRHDnFcF5iVTPhwj-243" vertex="1">
          <mxGeometry y="60" width="200" height="30" as="geometry" />
        </mxCell>
        <mxCell id="stontRHDnFcF5iVTPhwj-248" value="" style="shape=partialRectangle;connectable=0;fillColor=none;top=0;left=0;bottom=0;right=0;editable=1;overflow=hidden;whiteSpace=wrap;html=1;fontFamily=Helvetica;fontSize=12;" parent="stontRHDnFcF5iVTPhwj-247" vertex="1">
          <mxGeometry width="40" height="30" as="geometry">
            <mxRectangle width="40" height="30" as="alternateBounds" />
          </mxGeometry>
        </mxCell>
        <mxCell id="stontRHDnFcF5iVTPhwj-249" value="material_name" style="shape=partialRectangle;connectable=0;fillColor=none;top=0;left=0;bottom=0;right=0;align=left;spacingLeft=6;overflow=hidden;whiteSpace=wrap;html=1;fontFamily=Helvetica;fontSize=12;" parent="stontRHDnFcF5iVTPhwj-247" vertex="1">
          <mxGeometry x="40" width="160" height="30" as="geometry">
            <mxRectangle width="160" height="30" as="alternateBounds" />
          </mxGeometry>
        </mxCell>
        <mxCell id="stontRHDnFcF5iVTPhwj-250" value="" style="shape=tableRow;horizontal=0;startSize=0;swimlaneHead=0;swimlaneBody=0;fillColor=none;collapsible=0;dropTarget=0;points=[[0,0.5],[1,0.5]];portConstraint=eastwest;top=0;left=0;right=0;bottom=0;fontFamily=Helvetica;fontSize=12;" parent="stontRHDnFcF5iVTPhwj-243" vertex="1">
          <mxGeometry y="90" width="200" height="30" as="geometry" />
        </mxCell>
        <mxCell id="stontRHDnFcF5iVTPhwj-251" value="" style="shape=partialRectangle;connectable=0;fillColor=none;top=0;left=0;bottom=0;right=0;editable=1;overflow=hidden;whiteSpace=wrap;html=1;fontFamily=Helvetica;fontSize=12;" parent="stontRHDnFcF5iVTPhwj-250" vertex="1">
          <mxGeometry width="40" height="30" as="geometry">
            <mxRectangle width="40" height="30" as="alternateBounds" />
          </mxGeometry>
        </mxCell>
        <mxCell id="stontRHDnFcF5iVTPhwj-252" value="material_cetegory" style="shape=partialRectangle;connectable=0;fillColor=none;top=0;left=0;bottom=0;right=0;align=left;spacingLeft=6;overflow=hidden;whiteSpace=wrap;html=1;fontFamily=Helvetica;fontSize=12;" parent="stontRHDnFcF5iVTPhwj-250" vertex="1">
          <mxGeometry x="40" width="160" height="30" as="geometry">
            <mxRectangle width="160" height="30" as="alternateBounds" />
          </mxGeometry>
        </mxCell>
        <mxCell id="stontRHDnFcF5iVTPhwj-253" value="" style="shape=tableRow;horizontal=0;startSize=0;swimlaneHead=0;swimlaneBody=0;fillColor=none;collapsible=0;dropTarget=0;points=[[0,0.5],[1,0.5]];portConstraint=eastwest;top=0;left=0;right=0;bottom=0;fontFamily=Helvetica;fontSize=12;" parent="stontRHDnFcF5iVTPhwj-243" vertex="1">
          <mxGeometry y="120" width="200" height="30" as="geometry" />
        </mxCell>
        <mxCell id="stontRHDnFcF5iVTPhwj-254" value="" style="shape=partialRectangle;connectable=0;fillColor=none;top=0;left=0;bottom=0;right=0;editable=1;overflow=hidden;whiteSpace=wrap;html=1;fontFamily=Helvetica;fontSize=12;" parent="stontRHDnFcF5iVTPhwj-253" vertex="1">
          <mxGeometry width="40" height="30" as="geometry">
            <mxRectangle width="40" height="30" as="alternateBounds" />
          </mxGeometry>
        </mxCell>
        <mxCell id="stontRHDnFcF5iVTPhwj-255" value="" style="shape=partialRectangle;connectable=0;fillColor=none;top=0;left=0;bottom=0;right=0;align=left;spacingLeft=6;overflow=hidden;whiteSpace=wrap;html=1;fontFamily=Helvetica;fontSize=12;" parent="stontRHDnFcF5iVTPhwj-253" vertex="1">
          <mxGeometry x="40" width="160" height="30" as="geometry">
            <mxRectangle width="160" height="30" as="alternateBounds" />
          </mxGeometry>
        </mxCell>
        <mxCell id="stontRHDnFcF5iVTPhwj-258" value="unit_price" style="shape=partialRectangle;connectable=0;fillColor=none;top=0;left=0;bottom=0;right=0;align=left;spacingLeft=6;overflow=hidden;whiteSpace=wrap;html=1;fontFamily=Helvetica;fontSize=12;" parent="1" vertex="1">
          <mxGeometry x="1660" y="-120" width="160" height="30" as="geometry">
            <mxRectangle width="160" height="30" as="alternateBounds" />
          </mxGeometry>
        </mxCell>
        <mxCell id="stontRHDnFcF5iVTPhwj-276" value="employee_start_date" style="shape=partialRectangle;connectable=0;fillColor=none;top=0;left=0;bottom=0;right=0;align=left;spacingLeft=6;overflow=hidden;whiteSpace=wrap;html=1;fontFamily=Helvetica;fontSize=12;" parent="1" vertex="1">
          <mxGeometry x="720" y="1010" width="160" height="30" as="geometry">
            <mxRectangle width="160" height="30" as="alternateBounds" />
          </mxGeometry>
        </mxCell>
        <mxCell id="stontRHDnFcF5iVTPhwj-277" value="employee_status (active / vacation / sick_leave)" style="shape=partialRectangle;connectable=0;fillColor=none;top=0;left=0;bottom=0;right=0;align=left;spacingLeft=6;overflow=hidden;whiteSpace=wrap;html=1;fontFamily=Helvetica;fontSize=12;" parent="1" vertex="1">
          <mxGeometry x="720" y="1040" width="160" height="40" as="geometry">
            <mxRectangle width="160" height="30" as="alternateBounds" />
          </mxGeometry>
        </mxCell>
        <mxCell id="stontRHDnFcF5iVTPhwj-304" value="Vehicle" style="shape=table;startSize=30;container=1;collapsible=1;childLayout=tableLayout;fixedRows=1;rowLines=0;fontStyle=1;align=center;resizeLast=1;html=1;fontFamily=Helvetica;fontSize=12;" parent="1" vertex="1">
          <mxGeometry x="1040" y="79" width="200" height="401" as="geometry">
            <mxRectangle x="200" y="320" width="110" height="30" as="alternateBounds" />
          </mxGeometry>
        </mxCell>
        <mxCell id="stontRHDnFcF5iVTPhwj-305" value="" style="shape=tableRow;horizontal=0;startSize=0;swimlaneHead=0;swimlaneBody=0;fillColor=none;collapsible=0;dropTarget=0;points=[[0,0.5],[1,0.5]];portConstraint=eastwest;top=0;left=0;right=0;bottom=1;fontFamily=Helvetica;fontSize=12;" parent="stontRHDnFcF5iVTPhwj-304" vertex="1">
          <mxGeometry y="30" width="200" height="30" as="geometry" />
        </mxCell>
        <mxCell id="stontRHDnFcF5iVTPhwj-306" value="PK" style="shape=partialRectangle;connectable=0;fillColor=none;top=0;left=0;bottom=0;right=0;fontStyle=1;overflow=hidden;whiteSpace=wrap;html=1;fontFamily=Helvetica;fontSize=12;" parent="stontRHDnFcF5iVTPhwj-305" vertex="1">
          <mxGeometry width="40" height="30" as="geometry">
            <mxRectangle width="40" height="30" as="alternateBounds" />
          </mxGeometry>
        </mxCell>
        <mxCell id="stontRHDnFcF5iVTPhwj-307" value="vehicle_id" style="shape=partialRectangle;connectable=0;fillColor=none;top=0;left=0;bottom=0;right=0;align=left;spacingLeft=6;fontStyle=5;overflow=hidden;whiteSpace=wrap;html=1;fontFamily=Helvetica;fontSize=12;" parent="stontRHDnFcF5iVTPhwj-305" vertex="1">
          <mxGeometry x="40" width="160" height="30" as="geometry">
            <mxRectangle width="160" height="30" as="alternateBounds" />
          </mxGeometry>
        </mxCell>
        <mxCell id="stontRHDnFcF5iVTPhwj-308" value="" style="shape=tableRow;horizontal=0;startSize=0;swimlaneHead=0;swimlaneBody=0;fillColor=none;collapsible=0;dropTarget=0;points=[[0,0.5],[1,0.5]];portConstraint=eastwest;top=0;left=0;right=0;bottom=0;fontFamily=Helvetica;fontSize=12;" parent="stontRHDnFcF5iVTPhwj-304" vertex="1">
          <mxGeometry y="60" width="200" height="30" as="geometry" />
        </mxCell>
        <mxCell id="stontRHDnFcF5iVTPhwj-309" value="FK" style="shape=partialRectangle;connectable=0;fillColor=none;top=0;left=0;bottom=0;right=0;editable=1;overflow=hidden;whiteSpace=wrap;html=1;fontFamily=Helvetica;fontSize=12;" parent="stontRHDnFcF5iVTPhwj-308" vertex="1">
          <mxGeometry width="40" height="30" as="geometry">
            <mxRectangle width="40" height="30" as="alternateBounds" />
          </mxGeometry>
        </mxCell>
        <mxCell id="stontRHDnFcF5iVTPhwj-310" value="warehouse_id" style="shape=partialRectangle;connectable=0;fillColor=none;top=0;left=0;bottom=0;right=0;align=left;spacingLeft=6;overflow=hidden;whiteSpace=wrap;html=1;fontFamily=Helvetica;fontSize=12;" parent="stontRHDnFcF5iVTPhwj-308" vertex="1">
          <mxGeometry x="40" width="160" height="30" as="geometry">
            <mxRectangle width="160" height="30" as="alternateBounds" />
          </mxGeometry>
        </mxCell>
        <mxCell id="stontRHDnFcF5iVTPhwj-311" value="" style="shape=tableRow;horizontal=0;startSize=0;swimlaneHead=0;swimlaneBody=0;fillColor=none;collapsible=0;dropTarget=0;points=[[0,0.5],[1,0.5]];portConstraint=eastwest;top=0;left=0;right=0;bottom=0;fontFamily=Helvetica;fontSize=12;" parent="stontRHDnFcF5iVTPhwj-304" vertex="1">
          <mxGeometry y="90" width="200" height="30" as="geometry" />
        </mxCell>
        <mxCell id="stontRHDnFcF5iVTPhwj-312" value="" style="shape=partialRectangle;connectable=0;fillColor=none;top=0;left=0;bottom=0;right=0;editable=1;overflow=hidden;whiteSpace=wrap;html=1;fontFamily=Helvetica;fontSize=12;" parent="stontRHDnFcF5iVTPhwj-311" vertex="1">
          <mxGeometry width="40" height="30" as="geometry">
            <mxRectangle width="40" height="30" as="alternateBounds" />
          </mxGeometry>
        </mxCell>
        <mxCell id="stontRHDnFcF5iVTPhwj-313" value="license_plate" style="shape=partialRectangle;connectable=0;fillColor=none;top=0;left=0;bottom=0;right=0;align=left;spacingLeft=6;overflow=hidden;whiteSpace=wrap;html=1;fontFamily=Helvetica;fontSize=12;" parent="stontRHDnFcF5iVTPhwj-311" vertex="1">
          <mxGeometry x="40" width="160" height="30" as="geometry">
            <mxRectangle width="160" height="30" as="alternateBounds" />
          </mxGeometry>
        </mxCell>
        <mxCell id="stontRHDnFcF5iVTPhwj-314" value="" style="shape=tableRow;horizontal=0;startSize=0;swimlaneHead=0;swimlaneBody=0;fillColor=none;collapsible=0;dropTarget=0;points=[[0,0.5],[1,0.5]];portConstraint=eastwest;top=0;left=0;right=0;bottom=0;fontFamily=Helvetica;fontSize=12;" parent="stontRHDnFcF5iVTPhwj-304" vertex="1">
          <mxGeometry y="120" width="200" height="30" as="geometry" />
        </mxCell>
        <mxCell id="stontRHDnFcF5iVTPhwj-315" value="" style="shape=partialRectangle;connectable=0;fillColor=none;top=0;left=0;bottom=0;right=0;editable=1;overflow=hidden;whiteSpace=wrap;html=1;fontFamily=Helvetica;fontSize=12;" parent="stontRHDnFcF5iVTPhwj-314" vertex="1">
          <mxGeometry width="40" height="30" as="geometry">
            <mxRectangle width="40" height="30" as="alternateBounds" />
          </mxGeometry>
        </mxCell>
        <mxCell id="stontRHDnFcF5iVTPhwj-316" value="" style="shape=partialRectangle;connectable=0;fillColor=none;top=0;left=0;bottom=0;right=0;align=left;spacingLeft=6;overflow=hidden;whiteSpace=wrap;html=1;fontFamily=Helvetica;fontSize=12;" parent="stontRHDnFcF5iVTPhwj-314" vertex="1">
          <mxGeometry x="40" width="160" height="30" as="geometry">
            <mxRectangle width="160" height="30" as="alternateBounds" />
          </mxGeometry>
        </mxCell>
        <mxCell id="stontRHDnFcF5iVTPhwj-317" value="manufacture_year" style="shape=partialRectangle;connectable=0;fillColor=none;top=0;left=0;bottom=0;right=0;align=left;spacingLeft=6;overflow=hidden;whiteSpace=wrap;html=1;fontFamily=Helvetica;fontSize=12;" parent="1" vertex="1">
          <mxGeometry x="1080" y="264" width="160" height="30" as="geometry">
            <mxRectangle width="160" height="30" as="alternateBounds" />
          </mxGeometry>
        </mxCell>
        <mxCell id="stontRHDnFcF5iVTPhwj-319" value="brand" style="shape=partialRectangle;connectable=0;fillColor=none;top=0;left=0;bottom=0;right=0;align=left;spacingLeft=6;overflow=hidden;whiteSpace=wrap;html=1;fontFamily=Helvetica;fontSize=12;" parent="1" vertex="1">
          <mxGeometry x="1080" y="204" width="160" height="30" as="geometry">
            <mxRectangle width="160" height="30" as="alternateBounds" />
          </mxGeometry>
        </mxCell>
        <mxCell id="stontRHDnFcF5iVTPhwj-336" value="vehicle_purchase_date" style="shape=partialRectangle;connectable=0;fillColor=none;top=0;left=0;bottom=0;right=0;align=left;spacingLeft=6;overflow=hidden;whiteSpace=wrap;html=1;fontFamily=Helvetica;fontSize=12;" parent="1" vertex="1">
          <mxGeometry x="1080" y="294" width="160" height="30" as="geometry">
            <mxRectangle width="160" height="30" as="alternateBounds" />
          </mxGeometry>
        </mxCell>
        <mxCell id="stontRHDnFcF5iVTPhwj-337" value="vehicle_purchase_price" style="shape=partialRectangle;connectable=0;fillColor=none;top=0;left=0;bottom=0;right=0;align=left;spacingLeft=6;overflow=hidden;whiteSpace=wrap;html=1;fontFamily=Helvetica;fontSize=12;" parent="1" vertex="1">
          <mxGeometry x="1080" y="324" width="160" height="30" as="geometry">
            <mxRectangle width="160" height="30" as="alternateBounds" />
          </mxGeometry>
        </mxCell>
        <mxCell id="stontRHDnFcF5iVTPhwj-338" value="vehicle_status (available / assigned / in_repair / retired)" style="shape=partialRectangle;connectable=0;fillColor=none;top=0;left=0;bottom=0;right=0;align=left;spacingLeft=6;overflow=hidden;whiteSpace=wrap;html=1;fontFamily=Helvetica;fontSize=12;" parent="1" vertex="1">
          <mxGeometry x="1080" y="354" width="160" height="50" as="geometry">
            <mxRectangle width="160" height="30" as="alternateBounds" />
          </mxGeometry>
        </mxCell>
        <mxCell id="ATHe2Pa4KEvy1F1jvOFX-93" value="" style="shape=partialRectangle;connectable=0;fillColor=none;top=0;left=0;bottom=0;right=0;align=left;spacingLeft=6;overflow=hidden;whiteSpace=wrap;html=1;fontFamily=Helvetica;fontSize=12;" parent="1" vertex="1">
          <mxGeometry x="440" y="660" width="160" height="30" as="geometry">
            <mxRectangle width="160" height="30" as="alternateBounds" />
          </mxGeometry>
        </mxCell>
        <mxCell id="ATHe2Pa4KEvy1F1jvOFX-95" value="Vehicle Borrow Start" style="shape=table;startSize=30;container=1;collapsible=1;childLayout=tableLayout;fixedRows=1;rowLines=0;fontStyle=1;align=center;resizeLast=1;html=1;fontFamily=Helvetica;fontSize=12;" parent="1" vertex="1">
          <mxGeometry x="1680" y="480" width="200" height="280" as="geometry">
            <mxRectangle x="200" y="320" width="110" height="30" as="alternateBounds" />
          </mxGeometry>
        </mxCell>
        <mxCell id="ATHe2Pa4KEvy1F1jvOFX-96" value="" style="shape=tableRow;horizontal=0;startSize=0;swimlaneHead=0;swimlaneBody=0;fillColor=none;collapsible=0;dropTarget=0;points=[[0,0.5],[1,0.5]];portConstraint=eastwest;top=0;left=0;right=0;bottom=1;fontFamily=Helvetica;fontSize=12;" parent="ATHe2Pa4KEvy1F1jvOFX-95" vertex="1">
          <mxGeometry y="30" width="200" height="30" as="geometry" />
        </mxCell>
        <mxCell id="ATHe2Pa4KEvy1F1jvOFX-97" value="PK" style="shape=partialRectangle;connectable=0;fillColor=none;top=0;left=0;bottom=0;right=0;fontStyle=1;overflow=hidden;whiteSpace=wrap;html=1;fontFamily=Helvetica;fontSize=12;" parent="ATHe2Pa4KEvy1F1jvOFX-96" vertex="1">
          <mxGeometry width="40" height="30" as="geometry">
            <mxRectangle width="40" height="30" as="alternateBounds" />
          </mxGeometry>
        </mxCell>
        <mxCell id="ATHe2Pa4KEvy1F1jvOFX-98" value="vehicle_borrow_id" style="shape=partialRectangle;connectable=0;fillColor=none;top=0;left=0;bottom=0;right=0;align=left;spacingLeft=6;fontStyle=5;overflow=hidden;whiteSpace=wrap;html=1;fontFamily=Helvetica;fontSize=12;" parent="ATHe2Pa4KEvy1F1jvOFX-96" vertex="1">
          <mxGeometry x="40" width="160" height="30" as="geometry">
            <mxRectangle width="160" height="30" as="alternateBounds" />
          </mxGeometry>
        </mxCell>
        <mxCell id="ATHe2Pa4KEvy1F1jvOFX-99" value="" style="shape=tableRow;horizontal=0;startSize=0;swimlaneHead=0;swimlaneBody=0;fillColor=none;collapsible=0;dropTarget=0;points=[[0,0.5],[1,0.5]];portConstraint=eastwest;top=0;left=0;right=0;bottom=0;fontFamily=Helvetica;fontSize=12;" parent="ATHe2Pa4KEvy1F1jvOFX-95" vertex="1">
          <mxGeometry y="60" width="200" height="30" as="geometry" />
        </mxCell>
        <mxCell id="ATHe2Pa4KEvy1F1jvOFX-100" value="FK" style="shape=partialRectangle;connectable=0;fillColor=none;top=0;left=0;bottom=0;right=0;editable=1;overflow=hidden;whiteSpace=wrap;html=1;fontFamily=Helvetica;fontSize=12;" parent="ATHe2Pa4KEvy1F1jvOFX-99" vertex="1">
          <mxGeometry width="40" height="30" as="geometry">
            <mxRectangle width="40" height="30" as="alternateBounds" />
          </mxGeometry>
        </mxCell>
        <mxCell id="ATHe2Pa4KEvy1F1jvOFX-101" value="&lt;span&gt;vehicle_id&lt;/span&gt;" style="shape=partialRectangle;connectable=0;fillColor=none;top=0;left=0;bottom=0;right=0;align=left;spacingLeft=6;overflow=hidden;whiteSpace=wrap;html=1;fontFamily=Helvetica;fontSize=12;" parent="ATHe2Pa4KEvy1F1jvOFX-99" vertex="1">
          <mxGeometry x="40" width="160" height="30" as="geometry">
            <mxRectangle width="160" height="30" as="alternateBounds" />
          </mxGeometry>
        </mxCell>
        <mxCell id="ATHe2Pa4KEvy1F1jvOFX-102" value="" style="shape=tableRow;horizontal=0;startSize=0;swimlaneHead=0;swimlaneBody=0;fillColor=none;collapsible=0;dropTarget=0;points=[[0,0.5],[1,0.5]];portConstraint=eastwest;top=0;left=0;right=0;bottom=0;fontFamily=Helvetica;fontSize=12;" parent="ATHe2Pa4KEvy1F1jvOFX-95" vertex="1">
          <mxGeometry y="90" width="200" height="30" as="geometry" />
        </mxCell>
        <mxCell id="ATHe2Pa4KEvy1F1jvOFX-103" value="FK" style="shape=partialRectangle;connectable=0;fillColor=none;top=0;left=0;bottom=0;right=0;editable=1;overflow=hidden;whiteSpace=wrap;html=1;fontFamily=Helvetica;fontSize=12;" parent="ATHe2Pa4KEvy1F1jvOFX-102" vertex="1">
          <mxGeometry width="40" height="30" as="geometry">
            <mxRectangle width="40" height="30" as="alternateBounds" />
          </mxGeometry>
        </mxCell>
        <mxCell id="ATHe2Pa4KEvy1F1jvOFX-104" value="employee_id" style="shape=partialRectangle;connectable=0;fillColor=none;top=0;left=0;bottom=0;right=0;align=left;spacingLeft=6;overflow=hidden;whiteSpace=wrap;html=1;fontFamily=Helvetica;fontSize=12;" parent="ATHe2Pa4KEvy1F1jvOFX-102" vertex="1">
          <mxGeometry x="40" width="160" height="30" as="geometry">
            <mxRectangle width="160" height="30" as="alternateBounds" />
          </mxGeometry>
        </mxCell>
        <mxCell id="ATHe2Pa4KEvy1F1jvOFX-105" value="" style="shape=tableRow;horizontal=0;startSize=0;swimlaneHead=0;swimlaneBody=0;fillColor=none;collapsible=0;dropTarget=0;points=[[0,0.5],[1,0.5]];portConstraint=eastwest;top=0;left=0;right=0;bottom=0;fontFamily=Helvetica;fontSize=12;" parent="ATHe2Pa4KEvy1F1jvOFX-95" vertex="1">
          <mxGeometry y="120" width="200" height="30" as="geometry" />
        </mxCell>
        <mxCell id="ATHe2Pa4KEvy1F1jvOFX-106" value="FK" style="shape=partialRectangle;connectable=0;fillColor=none;top=0;left=0;bottom=0;right=0;editable=1;overflow=hidden;whiteSpace=wrap;html=1;fontFamily=Helvetica;fontSize=12;" parent="ATHe2Pa4KEvy1F1jvOFX-105" vertex="1">
          <mxGeometry width="40" height="30" as="geometry">
            <mxRectangle width="40" height="30" as="alternateBounds" />
          </mxGeometry>
        </mxCell>
        <mxCell id="ATHe2Pa4KEvy1F1jvOFX-107" value="project_id" style="shape=partialRectangle;connectable=0;fillColor=none;top=0;left=0;bottom=0;right=0;align=left;spacingLeft=6;overflow=hidden;whiteSpace=wrap;html=1;fontFamily=Helvetica;fontSize=12;" parent="ATHe2Pa4KEvy1F1jvOFX-105" vertex="1">
          <mxGeometry x="40" width="160" height="30" as="geometry">
            <mxRectangle width="160" height="30" as="alternateBounds" />
          </mxGeometry>
        </mxCell>
        <mxCell id="ATHe2Pa4KEvy1F1jvOFX-108" value="vehicle_borrow_date" style="shape=partialRectangle;connectable=0;fillColor=none;top=0;left=0;bottom=0;right=0;align=left;spacingLeft=6;overflow=hidden;whiteSpace=wrap;html=1;fontFamily=Helvetica;fontSize=12;" parent="1" vertex="1">
          <mxGeometry x="1720" y="630" width="160" height="30" as="geometry">
            <mxRectangle width="160" height="30" as="alternateBounds" />
          </mxGeometry>
        </mxCell>
        <mxCell id="ATHe2Pa4KEvy1F1jvOFX-109" value="vehicle_expect_return_date" style="shape=partialRectangle;connectable=0;fillColor=none;top=0;left=0;bottom=0;right=0;align=left;spacingLeft=6;overflow=hidden;whiteSpace=wrap;html=1;fontFamily=Helvetica;fontSize=12;" parent="1" vertex="1">
          <mxGeometry x="1720" y="660" width="160" height="30" as="geometry">
            <mxRectangle width="160" height="30" as="alternateBounds" />
          </mxGeometry>
        </mxCell>
        <mxCell id="ATHe2Pa4KEvy1F1jvOFX-110" value="start_kilometers" style="shape=partialRectangle;connectable=0;fillColor=none;top=0;left=0;bottom=0;right=0;align=left;spacingLeft=6;overflow=hidden;whiteSpace=wrap;html=1;fontFamily=Helvetica;fontSize=12;" parent="1" vertex="1">
          <mxGeometry x="1720" y="690" width="160" height="30" as="geometry">
            <mxRectangle width="160" height="30" as="alternateBounds" />
          </mxGeometry>
        </mxCell>
        <mxCell id="ATHe2Pa4KEvy1F1jvOFX-111" value="note" style="shape=partialRectangle;connectable=0;fillColor=none;top=0;left=0;bottom=0;right=0;align=left;spacingLeft=6;overflow=hidden;whiteSpace=wrap;html=1;fontFamily=Helvetica;fontSize=12;" parent="1" vertex="1">
          <mxGeometry x="1720" y="720" width="160" height="30" as="geometry">
            <mxRectangle width="160" height="30" as="alternateBounds" />
          </mxGeometry>
        </mxCell>
        <mxCell id="ATHe2Pa4KEvy1F1jvOFX-117" value="tool_expected_return_date" style="shape=partialRectangle;connectable=0;fillColor=none;top=0;left=0;bottom=0;right=0;align=left;spacingLeft=6;overflow=hidden;whiteSpace=wrap;html=1;fontFamily=Helvetica;fontSize=12;" parent="1" vertex="1">
          <mxGeometry x="440" y="660" width="160" height="30" as="geometry">
            <mxRectangle width="160" height="30" as="alternateBounds" />
          </mxGeometry>
        </mxCell>
        <mxCell id="ATHe2Pa4KEvy1F1jvOFX-184" value="fuel_cost_per_km" style="shape=partialRectangle;connectable=0;fillColor=none;top=0;left=0;bottom=0;right=0;align=left;spacingLeft=6;overflow=hidden;whiteSpace=wrap;html=1;fontFamily=Helvetica;fontSize=12;" parent="1" vertex="1">
          <mxGeometry x="1080" y="404" width="160" height="30" as="geometry">
            <mxRectangle width="160" height="30" as="alternateBounds" />
          </mxGeometry>
        </mxCell>
        <mxCell id="bew7H7eXBtvLtZtFgnXy-1" value="" style="fontSize=12;html=1;endArrow=ERzeroToMany;startArrow=ERmandOne;rounded=0;" parent="1" edge="1">
          <mxGeometry width="100" height="100" relative="1" as="geometry">
            <mxPoint x="840" y="1080" as="sourcePoint" />
            <mxPoint x="1020" y="1240" as="targetPoint" />
            <Array as="points">
              <mxPoint x="840" y="1240" />
            </Array>
          </mxGeometry>
        </mxCell>
        <mxCell id="bew7H7eXBtvLtZtFgnXy-2" value="Task" style="shape=table;startSize=30;container=1;collapsible=1;childLayout=tableLayout;fixedRows=1;rowLines=0;fontStyle=1;align=center;resizeLast=1;html=1;" parent="1" vertex="1">
          <mxGeometry x="1041" y="800" width="200" height="280" as="geometry" />
        </mxCell>
        <mxCell id="bew7H7eXBtvLtZtFgnXy-3" value="" style="shape=tableRow;horizontal=0;startSize=0;swimlaneHead=0;swimlaneBody=0;fillColor=none;collapsible=0;dropTarget=0;points=[[0,0.5],[1,0.5]];portConstraint=eastwest;top=0;left=0;right=0;bottom=1;" parent="bew7H7eXBtvLtZtFgnXy-2" vertex="1">
          <mxGeometry y="30" width="200" height="30" as="geometry" />
        </mxCell>
        <mxCell id="bew7H7eXBtvLtZtFgnXy-4" value="PK" style="shape=partialRectangle;connectable=0;fillColor=none;top=0;left=0;bottom=0;right=0;fontStyle=1;overflow=hidden;whiteSpace=wrap;html=1;" parent="bew7H7eXBtvLtZtFgnXy-3" vertex="1">
          <mxGeometry width="30" height="30" as="geometry">
            <mxRectangle width="30" height="30" as="alternateBounds" />
          </mxGeometry>
        </mxCell>
        <mxCell id="bew7H7eXBtvLtZtFgnXy-5" value="task_id" style="shape=partialRectangle;connectable=0;fillColor=none;top=0;left=0;bottom=0;right=0;align=left;spacingLeft=6;fontStyle=5;overflow=hidden;whiteSpace=wrap;html=1;" parent="bew7H7eXBtvLtZtFgnXy-3" vertex="1">
          <mxGeometry x="30" width="170" height="30" as="geometry">
            <mxRectangle width="170" height="30" as="alternateBounds" />
          </mxGeometry>
        </mxCell>
        <mxCell id="bew7H7eXBtvLtZtFgnXy-6" value="" style="shape=tableRow;horizontal=0;startSize=0;swimlaneHead=0;swimlaneBody=0;fillColor=none;collapsible=0;dropTarget=0;points=[[0,0.5],[1,0.5]];portConstraint=eastwest;top=0;left=0;right=0;bottom=0;" parent="bew7H7eXBtvLtZtFgnXy-2" vertex="1">
          <mxGeometry y="60" width="200" height="30" as="geometry" />
        </mxCell>
        <mxCell id="bew7H7eXBtvLtZtFgnXy-7" value="FK" style="shape=partialRectangle;connectable=0;fillColor=none;top=0;left=0;bottom=0;right=0;editable=1;overflow=hidden;whiteSpace=wrap;html=1;" parent="bew7H7eXBtvLtZtFgnXy-6" vertex="1">
          <mxGeometry width="30" height="30" as="geometry">
            <mxRectangle width="30" height="30" as="alternateBounds" />
          </mxGeometry>
        </mxCell>
        <mxCell id="bew7H7eXBtvLtZtFgnXy-8" value="project_id" style="shape=partialRectangle;connectable=0;fillColor=none;top=0;left=0;bottom=0;right=0;align=left;spacingLeft=6;overflow=hidden;whiteSpace=wrap;html=1;" parent="bew7H7eXBtvLtZtFgnXy-6" vertex="1">
          <mxGeometry x="30" width="170" height="30" as="geometry">
            <mxRectangle width="170" height="30" as="alternateBounds" />
          </mxGeometry>
        </mxCell>
        <mxCell id="bew7H7eXBtvLtZtFgnXy-9" value="" style="shape=tableRow;horizontal=0;startSize=0;swimlaneHead=0;swimlaneBody=0;fillColor=none;collapsible=0;dropTarget=0;points=[[0,0.5],[1,0.5]];portConstraint=eastwest;top=0;left=0;right=0;bottom=0;" parent="bew7H7eXBtvLtZtFgnXy-2" vertex="1">
          <mxGeometry y="90" width="200" height="30" as="geometry" />
        </mxCell>
        <mxCell id="bew7H7eXBtvLtZtFgnXy-10" value="" style="shape=partialRectangle;connectable=0;fillColor=none;top=0;left=0;bottom=0;right=0;editable=1;overflow=hidden;whiteSpace=wrap;html=1;" parent="bew7H7eXBtvLtZtFgnXy-9" vertex="1">
          <mxGeometry width="30" height="30" as="geometry">
            <mxRectangle width="30" height="30" as="alternateBounds" />
          </mxGeometry>
        </mxCell>
        <mxCell id="bew7H7eXBtvLtZtFgnXy-11" value="task_start_date" style="shape=partialRectangle;connectable=0;fillColor=none;top=0;left=0;bottom=0;right=0;align=left;spacingLeft=6;overflow=hidden;whiteSpace=wrap;html=1;" parent="bew7H7eXBtvLtZtFgnXy-9" vertex="1">
          <mxGeometry x="30" width="170" height="30" as="geometry">
            <mxRectangle width="170" height="30" as="alternateBounds" />
          </mxGeometry>
        </mxCell>
        <mxCell id="bew7H7eXBtvLtZtFgnXy-12" value="" style="shape=tableRow;horizontal=0;startSize=0;swimlaneHead=0;swimlaneBody=0;fillColor=none;collapsible=0;dropTarget=0;points=[[0,0.5],[1,0.5]];portConstraint=eastwest;top=0;left=0;right=0;bottom=0;" parent="bew7H7eXBtvLtZtFgnXy-2" vertex="1">
          <mxGeometry y="120" width="200" height="30" as="geometry" />
        </mxCell>
        <mxCell id="bew7H7eXBtvLtZtFgnXy-13" value="" style="shape=partialRectangle;connectable=0;fillColor=none;top=0;left=0;bottom=0;right=0;editable=1;overflow=hidden;whiteSpace=wrap;html=1;" parent="bew7H7eXBtvLtZtFgnXy-12" vertex="1">
          <mxGeometry width="30" height="30" as="geometry">
            <mxRectangle width="30" height="30" as="alternateBounds" />
          </mxGeometry>
        </mxCell>
        <mxCell id="bew7H7eXBtvLtZtFgnXy-14" value="task_end_date" style="shape=partialRectangle;connectable=0;fillColor=none;top=0;left=0;bottom=0;right=0;align=left;spacingLeft=6;overflow=hidden;whiteSpace=wrap;html=1;" parent="bew7H7eXBtvLtZtFgnXy-12" vertex="1">
          <mxGeometry x="30" width="170" height="30" as="geometry">
            <mxRectangle width="170" height="30" as="alternateBounds" />
          </mxGeometry>
        </mxCell>
        <mxCell id="bew7H7eXBtvLtZtFgnXy-15" value="task_description" style="shape=partialRectangle;connectable=0;fillColor=none;top=0;left=0;bottom=0;right=0;align=left;spacingLeft=6;overflow=hidden;whiteSpace=wrap;html=1;" parent="1" vertex="1">
          <mxGeometry x="1070" y="950" width="170" height="30" as="geometry">
            <mxRectangle width="170" height="30" as="alternateBounds" />
          </mxGeometry>
        </mxCell>
        <mxCell id="bew7H7eXBtvLtZtFgnXy-18" value="" style="fontSize=12;html=1;endArrow=ERzeroToMany;startArrow=ERmandOne;rounded=0;entryX=0;entryY=0.667;entryDx=0;entryDy=0;entryPerimeter=0;exitX=-0.001;exitY=0.663;exitDx=0;exitDy=0;exitPerimeter=0;" parent="1" source="stontRHDnFcF5iVTPhwj-104" edge="1">
          <mxGeometry width="100" height="100" relative="1" as="geometry">
            <mxPoint x="1350" y="880" as="sourcePoint" />
            <mxPoint x="1240" y="880" as="targetPoint" />
          </mxGeometry>
        </mxCell>
        <mxCell id="bew7H7eXBtvLtZtFgnXy-23" value="Tool" style="shape=table;startSize=30;container=1;collapsible=1;childLayout=tableLayout;fixedRows=1;rowLines=0;fontStyle=1;align=center;resizeLast=1;html=1;fontFamily=Helvetica;fontSize=12;" parent="1" vertex="1">
          <mxGeometry x="680" y="79" width="200" height="270" as="geometry">
            <mxRectangle x="200" y="320" width="110" height="30" as="alternateBounds" />
          </mxGeometry>
        </mxCell>
        <mxCell id="bew7H7eXBtvLtZtFgnXy-24" value="" style="shape=tableRow;horizontal=0;startSize=0;swimlaneHead=0;swimlaneBody=0;fillColor=none;collapsible=0;dropTarget=0;points=[[0,0.5],[1,0.5]];portConstraint=eastwest;top=0;left=0;right=0;bottom=1;fontFamily=Helvetica;fontSize=12;" parent="bew7H7eXBtvLtZtFgnXy-23" vertex="1">
          <mxGeometry y="30" width="200" height="30" as="geometry" />
        </mxCell>
        <mxCell id="bew7H7eXBtvLtZtFgnXy-25" value="PK" style="shape=partialRectangle;connectable=0;fillColor=none;top=0;left=0;bottom=0;right=0;fontStyle=1;overflow=hidden;whiteSpace=wrap;html=1;fontFamily=Helvetica;fontSize=12;" parent="bew7H7eXBtvLtZtFgnXy-24" vertex="1">
          <mxGeometry width="40" height="30" as="geometry">
            <mxRectangle width="40" height="30" as="alternateBounds" />
          </mxGeometry>
        </mxCell>
        <mxCell id="bew7H7eXBtvLtZtFgnXy-26" value="tool_id" style="shape=partialRectangle;connectable=0;fillColor=none;top=0;left=0;bottom=0;right=0;align=left;spacingLeft=6;fontStyle=5;overflow=hidden;whiteSpace=wrap;html=1;fontFamily=Helvetica;fontSize=12;" parent="bew7H7eXBtvLtZtFgnXy-24" vertex="1">
          <mxGeometry x="40" width="160" height="30" as="geometry">
            <mxRectangle width="160" height="30" as="alternateBounds" />
          </mxGeometry>
        </mxCell>
        <mxCell id="bew7H7eXBtvLtZtFgnXy-27" value="" style="shape=tableRow;horizontal=0;startSize=0;swimlaneHead=0;swimlaneBody=0;fillColor=none;collapsible=0;dropTarget=0;points=[[0,0.5],[1,0.5]];portConstraint=eastwest;top=0;left=0;right=0;bottom=0;fontFamily=Helvetica;fontSize=12;" parent="bew7H7eXBtvLtZtFgnXy-23" vertex="1">
          <mxGeometry y="60" width="200" height="30" as="geometry" />
        </mxCell>
        <mxCell id="bew7H7eXBtvLtZtFgnXy-28" value="FK" style="shape=partialRectangle;connectable=0;fillColor=none;top=0;left=0;bottom=0;right=0;editable=1;overflow=hidden;whiteSpace=wrap;html=1;fontFamily=Helvetica;fontSize=12;" parent="bew7H7eXBtvLtZtFgnXy-27" vertex="1">
          <mxGeometry width="40" height="30" as="geometry">
            <mxRectangle width="40" height="30" as="alternateBounds" />
          </mxGeometry>
        </mxCell>
        <mxCell id="bew7H7eXBtvLtZtFgnXy-29" value="warehouse_id" style="shape=partialRectangle;connectable=0;fillColor=none;top=0;left=0;bottom=0;right=0;align=left;spacingLeft=6;overflow=hidden;whiteSpace=wrap;html=1;fontFamily=Helvetica;fontSize=12;" parent="bew7H7eXBtvLtZtFgnXy-27" vertex="1">
          <mxGeometry x="40" width="160" height="30" as="geometry">
            <mxRectangle width="160" height="30" as="alternateBounds" />
          </mxGeometry>
        </mxCell>
        <mxCell id="bew7H7eXBtvLtZtFgnXy-30" value="" style="shape=tableRow;horizontal=0;startSize=0;swimlaneHead=0;swimlaneBody=0;fillColor=none;collapsible=0;dropTarget=0;points=[[0,0.5],[1,0.5]];portConstraint=eastwest;top=0;left=0;right=0;bottom=0;fontFamily=Helvetica;fontSize=12;" parent="bew7H7eXBtvLtZtFgnXy-23" vertex="1">
          <mxGeometry y="90" width="200" height="30" as="geometry" />
        </mxCell>
        <mxCell id="bew7H7eXBtvLtZtFgnXy-31" value="" style="shape=partialRectangle;connectable=0;fillColor=none;top=0;left=0;bottom=0;right=0;editable=1;overflow=hidden;whiteSpace=wrap;html=1;fontFamily=Helvetica;fontSize=12;" parent="bew7H7eXBtvLtZtFgnXy-30" vertex="1">
          <mxGeometry width="40" height="30" as="geometry">
            <mxRectangle width="40" height="30" as="alternateBounds" />
          </mxGeometry>
        </mxCell>
        <mxCell id="bew7H7eXBtvLtZtFgnXy-32" value="tool_name" style="shape=partialRectangle;connectable=0;fillColor=none;top=0;left=0;bottom=0;right=0;align=left;spacingLeft=6;overflow=hidden;whiteSpace=wrap;html=1;fontFamily=Helvetica;fontSize=12;" parent="bew7H7eXBtvLtZtFgnXy-30" vertex="1">
          <mxGeometry x="40" width="160" height="30" as="geometry">
            <mxRectangle width="160" height="30" as="alternateBounds" />
          </mxGeometry>
        </mxCell>
        <mxCell id="bew7H7eXBtvLtZtFgnXy-33" value="" style="shape=tableRow;horizontal=0;startSize=0;swimlaneHead=0;swimlaneBody=0;fillColor=none;collapsible=0;dropTarget=0;points=[[0,0.5],[1,0.5]];portConstraint=eastwest;top=0;left=0;right=0;bottom=0;fontFamily=Helvetica;fontSize=12;" parent="bew7H7eXBtvLtZtFgnXy-23" vertex="1">
          <mxGeometry y="120" width="200" height="30" as="geometry" />
        </mxCell>
        <mxCell id="bew7H7eXBtvLtZtFgnXy-34" value="" style="shape=partialRectangle;connectable=0;fillColor=none;top=0;left=0;bottom=0;right=0;editable=1;overflow=hidden;whiteSpace=wrap;html=1;fontFamily=Helvetica;fontSize=12;" parent="bew7H7eXBtvLtZtFgnXy-33" vertex="1">
          <mxGeometry width="40" height="30" as="geometry">
            <mxRectangle width="40" height="30" as="alternateBounds" />
          </mxGeometry>
        </mxCell>
        <mxCell id="bew7H7eXBtvLtZtFgnXy-35" value="tool_category" style="shape=partialRectangle;connectable=0;fillColor=none;top=0;left=0;bottom=0;right=0;align=left;spacingLeft=6;overflow=hidden;whiteSpace=wrap;html=1;fontFamily=Helvetica;fontSize=12;" parent="bew7H7eXBtvLtZtFgnXy-33" vertex="1">
          <mxGeometry x="40" width="160" height="30" as="geometry">
            <mxRectangle width="160" height="30" as="alternateBounds" />
          </mxGeometry>
        </mxCell>
        <mxCell id="bew7H7eXBtvLtZtFgnXy-36" value="tool_status (available / assigned / in_repair / retired)" style="shape=partialRectangle;connectable=0;fillColor=none;top=0;left=0;bottom=0;right=0;align=left;spacingLeft=6;overflow=hidden;whiteSpace=wrap;html=1;fontFamily=Helvetica;fontSize=12;" parent="1" vertex="1">
          <mxGeometry x="720" y="288" width="160" height="51" as="geometry">
            <mxRectangle width="160" height="30" as="alternateBounds" />
          </mxGeometry>
        </mxCell>
        <mxCell id="bew7H7eXBtvLtZtFgnXy-37" value="tool_purchase_date" style="shape=partialRectangle;connectable=0;fillColor=none;top=0;left=0;bottom=0;right=0;align=left;spacingLeft=6;overflow=hidden;whiteSpace=wrap;html=1;fontFamily=Helvetica;fontSize=12;" parent="1" vertex="1">
          <mxGeometry x="720" y="228" width="160" height="30" as="geometry">
            <mxRectangle width="160" height="30" as="alternateBounds" />
          </mxGeometry>
        </mxCell>
        <mxCell id="bew7H7eXBtvLtZtFgnXy-38" value="tool_purchase_price" style="shape=partialRectangle;connectable=0;fillColor=none;top=0;left=0;bottom=0;right=0;align=left;spacingLeft=6;overflow=hidden;whiteSpace=wrap;html=1;fontFamily=Helvetica;fontSize=12;" parent="1" vertex="1">
          <mxGeometry x="720" y="258" width="160" height="30" as="geometry">
            <mxRectangle width="160" height="30" as="alternateBounds" />
          </mxGeometry>
        </mxCell>
        <mxCell id="bew7H7eXBtvLtZtFgnXy-39" value="" style="fontSize=12;html=1;endArrow=ERzeroToMany;startArrow=ERmandOne;rounded=0;entryX=0.5;entryY=0;entryDx=0;entryDy=0;exitX=0;exitY=0.75;exitDx=0;exitDy=0;" parent="1" source="stontRHDnFcF5iVTPhwj-195" target="bew7H7eXBtvLtZtFgnXy-23" edge="1">
          <mxGeometry width="100" height="100" relative="1" as="geometry">
            <mxPoint x="990" y="-160" as="sourcePoint" />
            <mxPoint x="1109" y="160" as="targetPoint" />
            <Array as="points">
              <mxPoint x="780" y="-60" />
            </Array>
          </mxGeometry>
        </mxCell>
        <mxCell id="bew7H7eXBtvLtZtFgnXy-315" value="" style="fontSize=12;html=1;endArrow=ERzeroToMany;startArrow=ERmandOne;rounded=0;entryX=0.5;entryY=0;entryDx=0;entryDy=0;exitX=-0.008;exitY=0.325;exitDx=0;exitDy=0;exitPerimeter=0;" parent="1" source="bew7H7eXBtvLtZtFgnXy-30" target="stontRHDnFcF5iVTPhwj-141" edge="1">
          <mxGeometry width="100" height="100" relative="1" as="geometry">
            <mxPoint x="719" y="-40" as="sourcePoint" />
            <mxPoint x="690" y="135" as="targetPoint" />
            <Array as="points">
              <mxPoint x="500" y="179" />
            </Array>
          </mxGeometry>
        </mxCell>
        <mxCell id="bew7H7eXBtvLtZtFgnXy-316" value="" style="fontSize=12;html=1;endArrow=ERzeroToMany;startArrow=ERmandOne;rounded=0;entryX=0.5;entryY=1;entryDx=0;entryDy=0;" parent="1" target="stontRHDnFcF5iVTPhwj-141" edge="1">
          <mxGeometry width="100" height="100" relative="1" as="geometry">
            <mxPoint x="680" y="880" as="sourcePoint" />
            <mxPoint x="425" y="680" as="targetPoint" />
            <Array as="points">
              <mxPoint x="500" y="880" />
            </Array>
          </mxGeometry>
        </mxCell>
        <mxCell id="bew7H7eXBtvLtZtFgnXy-334" value="model" style="shape=partialRectangle;connectable=0;fillColor=none;top=0;left=0;bottom=0;right=0;align=left;spacingLeft=6;overflow=hidden;whiteSpace=wrap;html=1;fontFamily=Helvetica;fontSize=12;" parent="1" vertex="1">
          <mxGeometry x="1080" y="234" width="160" height="30" as="geometry">
            <mxRectangle width="160" height="30" as="alternateBounds" />
          </mxGeometry>
        </mxCell>
        <mxCell id="bew7H7eXBtvLtZtFgnXy-335" value="" style="fontSize=12;html=1;endArrow=ERzeroToMany;startArrow=ERmandOne;rounded=0;entryX=0.5;entryY=0;entryDx=0;entryDy=0;exitX=1;exitY=0.75;exitDx=0;exitDy=0;" parent="1" source="stontRHDnFcF5iVTPhwj-195" target="stontRHDnFcF5iVTPhwj-304" edge="1">
          <mxGeometry width="100" height="100" relative="1" as="geometry">
            <mxPoint x="1200" y="-150" as="sourcePoint" />
            <mxPoint x="1420" y="90" as="targetPoint" />
            <Array as="points">
              <mxPoint x="1140" y="-60" />
            </Array>
          </mxGeometry>
        </mxCell>
        <mxCell id="_2EZ7THMiR9m6lI002ey-2" value="" style="fontSize=12;html=1;endArrow=ERzeroToMany;startArrow=ERmandOne;rounded=0;exitX=0.5;exitY=1;exitDx=0;exitDy=0;" parent="1" edge="1" source="stontRHDnFcF5iVTPhwj-304">
          <mxGeometry width="100" height="100" relative="1" as="geometry">
            <mxPoint x="1100" y="600" as="sourcePoint" />
            <mxPoint x="1680" y="600" as="targetPoint" />
            <Array as="points">
              <mxPoint x="1140" y="600" />
              <mxPoint x="1500" y="600" />
            </Array>
          </mxGeometry>
        </mxCell>
        <mxCell id="_2EZ7THMiR9m6lI002ey-3" value="" style="fontSize=12;html=1;endArrow=ERzeroToMany;startArrow=ERmandOne;rounded=0;exitX=1.002;exitY=0.648;exitDx=0;exitDy=0;exitPerimeter=0;entryX=0.5;entryY=1;entryDx=0;entryDy=0;" parent="1" source="stontRHDnFcF5iVTPhwj-104" target="ATHe2Pa4KEvy1F1jvOFX-95" edge="1">
          <mxGeometry width="100" height="100" relative="1" as="geometry">
            <mxPoint x="2100" y="920" as="sourcePoint" />
            <mxPoint x="1880" y="720" as="targetPoint" />
            <Array as="points">
              <mxPoint x="1780" y="880" />
            </Array>
          </mxGeometry>
        </mxCell>
        <mxCell id="_2EZ7THMiR9m6lI002ey-4" value="" style="fontSize=12;html=1;endArrow=ERzeroToMany;startArrow=ERmandOne;rounded=0;exitX=0.5;exitY=0;exitDx=0;exitDy=0;" parent="1" source="stontRHDnFcF5iVTPhwj-100" edge="1">
          <mxGeometry width="100" height="100" relative="1" as="geometry">
            <mxPoint x="1520" y="800" as="sourcePoint" />
            <mxPoint x="600" y="680" as="targetPoint" />
            <Array as="points">
              <mxPoint x="1500" y="680" />
            </Array>
          </mxGeometry>
        </mxCell>
        <mxCell id="_2EZ7THMiR9m6lI002ey-6" value="" style="fontSize=12;html=1;endArrow=ERzeroToOne;startArrow=ERmandOne;rounded=0;entryX=0.5;entryY=1;entryDx=0;entryDy=0;" parent="1" target="stontRHDnFcF5iVTPhwj-195" edge="1">
          <mxGeometry width="100" height="100" relative="1" as="geometry">
            <mxPoint x="880" y="880" as="sourcePoint" />
            <mxPoint x="990" y="-40" as="targetPoint" />
            <Array as="points">
              <mxPoint x="960" y="880" />
            </Array>
          </mxGeometry>
        </mxCell>
        <mxCell id="_2EZ7THMiR9m6lI002ey-10" value="depreciation_cost_per_km" style="shape=partialRectangle;connectable=0;fillColor=none;top=0;left=0;bottom=0;right=0;align=left;spacingLeft=6;overflow=hidden;whiteSpace=wrap;html=1;fontFamily=Helvetica;fontSize=12;" parent="1" vertex="1">
          <mxGeometry x="1081" y="434" width="160" height="30" as="geometry">
            <mxRectangle width="160" height="30" as="alternateBounds" />
          </mxGeometry>
        </mxCell>
        <mxCell id="_2EZ7THMiR9m6lI002ey-11" value="Material Transport Start" style="shape=table;startSize=30;container=1;collapsible=1;childLayout=tableLayout;fixedRows=1;rowLines=0;fontStyle=1;align=center;resizeLast=1;html=1;fontFamily=Helvetica;fontSize=12;" parent="1" vertex="1">
          <mxGeometry x="1400" y="159.5" width="200" height="240" as="geometry" />
        </mxCell>
        <mxCell id="_2EZ7THMiR9m6lI002ey-12" value="" style="shape=tableRow;horizontal=0;startSize=0;swimlaneHead=0;swimlaneBody=0;fillColor=none;collapsible=0;dropTarget=0;points=[[0,0.5],[1,0.5]];portConstraint=eastwest;top=0;left=0;right=0;bottom=1;fontFamily=Helvetica;fontSize=12;" parent="_2EZ7THMiR9m6lI002ey-11" vertex="1">
          <mxGeometry y="30" width="200" height="30" as="geometry" />
        </mxCell>
        <mxCell id="_2EZ7THMiR9m6lI002ey-13" value="PK" style="shape=partialRectangle;connectable=0;fillColor=none;top=0;left=0;bottom=0;right=0;fontStyle=1;overflow=hidden;whiteSpace=wrap;html=1;fontFamily=Helvetica;fontSize=12;" parent="_2EZ7THMiR9m6lI002ey-12" vertex="1">
          <mxGeometry width="40" height="30" as="geometry">
            <mxRectangle width="40" height="30" as="alternateBounds" />
          </mxGeometry>
        </mxCell>
        <mxCell id="_2EZ7THMiR9m6lI002ey-14" value="transport_start_id" style="shape=partialRectangle;connectable=0;fillColor=none;top=0;left=0;bottom=0;right=0;align=left;spacingLeft=6;fontStyle=5;overflow=hidden;whiteSpace=wrap;html=1;fontFamily=Helvetica;fontSize=12;" parent="_2EZ7THMiR9m6lI002ey-12" vertex="1">
          <mxGeometry x="40" width="160" height="30" as="geometry">
            <mxRectangle width="160" height="30" as="alternateBounds" />
          </mxGeometry>
        </mxCell>
        <mxCell id="_2EZ7THMiR9m6lI002ey-15" value="" style="shape=tableRow;horizontal=0;startSize=0;swimlaneHead=0;swimlaneBody=0;fillColor=none;collapsible=0;dropTarget=0;points=[[0,0.5],[1,0.5]];portConstraint=eastwest;top=0;left=0;right=0;bottom=0;fontFamily=Helvetica;fontSize=12;" parent="_2EZ7THMiR9m6lI002ey-11" vertex="1">
          <mxGeometry y="60" width="200" height="30" as="geometry" />
        </mxCell>
        <mxCell id="_2EZ7THMiR9m6lI002ey-16" value="FK" style="shape=partialRectangle;connectable=0;fillColor=none;top=0;left=0;bottom=0;right=0;editable=1;overflow=hidden;whiteSpace=wrap;html=1;fontFamily=Helvetica;fontSize=12;" parent="_2EZ7THMiR9m6lI002ey-15" vertex="1">
          <mxGeometry width="40" height="30" as="geometry">
            <mxRectangle width="40" height="30" as="alternateBounds" />
          </mxGeometry>
        </mxCell>
        <mxCell id="_2EZ7THMiR9m6lI002ey-17" value="vehicle_id" style="shape=partialRectangle;connectable=0;fillColor=none;top=0;left=0;bottom=0;right=0;align=left;spacingLeft=6;overflow=hidden;whiteSpace=wrap;html=1;fontFamily=Helvetica;fontSize=12;" parent="_2EZ7THMiR9m6lI002ey-15" vertex="1">
          <mxGeometry x="40" width="160" height="30" as="geometry">
            <mxRectangle width="160" height="30" as="alternateBounds" />
          </mxGeometry>
        </mxCell>
        <mxCell id="_2EZ7THMiR9m6lI002ey-18" value="" style="shape=tableRow;horizontal=0;startSize=0;swimlaneHead=0;swimlaneBody=0;fillColor=none;collapsible=0;dropTarget=0;points=[[0,0.5],[1,0.5]];portConstraint=eastwest;top=0;left=0;right=0;bottom=0;fontFamily=Helvetica;fontSize=12;" parent="_2EZ7THMiR9m6lI002ey-11" vertex="1">
          <mxGeometry y="90" width="200" height="30" as="geometry" />
        </mxCell>
        <mxCell id="_2EZ7THMiR9m6lI002ey-19" value="FK" style="shape=partialRectangle;connectable=0;fillColor=none;top=0;left=0;bottom=0;right=0;editable=1;overflow=hidden;whiteSpace=wrap;html=1;fontFamily=Helvetica;fontSize=12;" parent="_2EZ7THMiR9m6lI002ey-18" vertex="1">
          <mxGeometry width="40" height="30" as="geometry">
            <mxRectangle width="40" height="30" as="alternateBounds" />
          </mxGeometry>
        </mxCell>
        <mxCell id="_2EZ7THMiR9m6lI002ey-20" value="employee_id" style="shape=partialRectangle;connectable=0;fillColor=none;top=0;left=0;bottom=0;right=0;align=left;spacingLeft=6;overflow=hidden;whiteSpace=wrap;html=1;fontFamily=Helvetica;fontSize=12;" parent="_2EZ7THMiR9m6lI002ey-18" vertex="1">
          <mxGeometry x="40" width="160" height="30" as="geometry">
            <mxRectangle width="160" height="30" as="alternateBounds" />
          </mxGeometry>
        </mxCell>
        <mxCell id="_2EZ7THMiR9m6lI002ey-21" value="" style="shape=tableRow;horizontal=0;startSize=0;swimlaneHead=0;swimlaneBody=0;fillColor=none;collapsible=0;dropTarget=0;points=[[0,0.5],[1,0.5]];portConstraint=eastwest;top=0;left=0;right=0;bottom=0;fontFamily=Helvetica;fontSize=12;" parent="_2EZ7THMiR9m6lI002ey-11" vertex="1">
          <mxGeometry y="120" width="200" height="30" as="geometry" />
        </mxCell>
        <mxCell id="_2EZ7THMiR9m6lI002ey-22" value="FK" style="shape=partialRectangle;connectable=0;fillColor=none;top=0;left=0;bottom=0;right=0;editable=1;overflow=hidden;whiteSpace=wrap;html=1;fontFamily=Helvetica;fontSize=12;" parent="_2EZ7THMiR9m6lI002ey-21" vertex="1">
          <mxGeometry width="40" height="30" as="geometry">
            <mxRectangle width="40" height="30" as="alternateBounds" />
          </mxGeometry>
        </mxCell>
        <mxCell id="_2EZ7THMiR9m6lI002ey-23" value="project_id" style="shape=partialRectangle;connectable=0;fillColor=none;top=0;left=0;bottom=0;right=0;align=left;spacingLeft=6;overflow=hidden;whiteSpace=wrap;html=1;fontFamily=Helvetica;fontSize=12;" parent="_2EZ7THMiR9m6lI002ey-21" vertex="1">
          <mxGeometry x="40" width="160" height="30" as="geometry">
            <mxRectangle width="160" height="30" as="alternateBounds" />
          </mxGeometry>
        </mxCell>
        <mxCell id="_2EZ7THMiR9m6lI002ey-24" value="project_description" style="shape=partialRectangle;connectable=0;fillColor=none;top=0;left=0;bottom=0;right=0;align=left;spacingLeft=6;overflow=hidden;whiteSpace=wrap;html=1;fontFamily=Helvetica;fontSize=12;" parent="1" vertex="1">
          <mxGeometry x="1440" y="1120" width="160" height="30" as="geometry">
            <mxRectangle width="160" height="30" as="alternateBounds" />
          </mxGeometry>
        </mxCell>
        <mxCell id="_2EZ7THMiR9m6lI002ey-25" value="Warehouse Inventory" style="shape=table;startSize=30;container=1;collapsible=1;childLayout=tableLayout;fixedRows=1;rowLines=0;fontStyle=1;align=center;resizeLast=1;html=1;fontFamily=Helvetica;fontSize=12;" parent="1" vertex="1">
          <mxGeometry x="1180" y="-240" width="200" height="240" as="geometry">
            <mxRectangle x="200" y="320" width="110" height="30" as="alternateBounds" />
          </mxGeometry>
        </mxCell>
        <mxCell id="_2EZ7THMiR9m6lI002ey-26" value="" style="shape=tableRow;horizontal=0;startSize=0;swimlaneHead=0;swimlaneBody=0;fillColor=none;collapsible=0;dropTarget=0;points=[[0,0.5],[1,0.5]];portConstraint=eastwest;top=0;left=0;right=0;bottom=1;fontFamily=Helvetica;fontSize=12;" parent="_2EZ7THMiR9m6lI002ey-25" vertex="1">
          <mxGeometry y="30" width="200" height="30" as="geometry" />
        </mxCell>
        <mxCell id="_2EZ7THMiR9m6lI002ey-27" value="PK" style="shape=partialRectangle;connectable=0;fillColor=none;top=0;left=0;bottom=0;right=0;fontStyle=1;overflow=hidden;whiteSpace=wrap;html=1;fontFamily=Helvetica;fontSize=12;" parent="_2EZ7THMiR9m6lI002ey-26" vertex="1">
          <mxGeometry width="40" height="30" as="geometry">
            <mxRectangle width="40" height="30" as="alternateBounds" />
          </mxGeometry>
        </mxCell>
        <mxCell id="_2EZ7THMiR9m6lI002ey-28" value="warehouse_item_id" style="shape=partialRectangle;connectable=0;fillColor=none;top=0;left=0;bottom=0;right=0;align=left;spacingLeft=6;fontStyle=5;overflow=hidden;whiteSpace=wrap;html=1;fontFamily=Helvetica;fontSize=12;" parent="_2EZ7THMiR9m6lI002ey-26" vertex="1">
          <mxGeometry x="40" width="160" height="30" as="geometry">
            <mxRectangle width="160" height="30" as="alternateBounds" />
          </mxGeometry>
        </mxCell>
        <mxCell id="_2EZ7THMiR9m6lI002ey-29" value="" style="shape=tableRow;horizontal=0;startSize=0;swimlaneHead=0;swimlaneBody=0;fillColor=none;collapsible=0;dropTarget=0;points=[[0,0.5],[1,0.5]];portConstraint=eastwest;top=0;left=0;right=0;bottom=0;fontFamily=Helvetica;fontSize=12;" parent="_2EZ7THMiR9m6lI002ey-25" vertex="1">
          <mxGeometry y="60" width="200" height="30" as="geometry" />
        </mxCell>
        <mxCell id="_2EZ7THMiR9m6lI002ey-30" value="FK" style="shape=partialRectangle;connectable=0;fillColor=none;top=0;left=0;bottom=0;right=0;editable=1;overflow=hidden;whiteSpace=wrap;html=1;fontFamily=Helvetica;fontSize=12;" parent="_2EZ7THMiR9m6lI002ey-29" vertex="1">
          <mxGeometry width="40" height="30" as="geometry">
            <mxRectangle width="40" height="30" as="alternateBounds" />
          </mxGeometry>
        </mxCell>
        <mxCell id="_2EZ7THMiR9m6lI002ey-31" value="warehouse_id" style="shape=partialRectangle;connectable=0;fillColor=none;top=0;left=0;bottom=0;right=0;align=left;spacingLeft=6;overflow=hidden;whiteSpace=wrap;html=1;fontFamily=Helvetica;fontSize=12;" parent="_2EZ7THMiR9m6lI002ey-29" vertex="1">
          <mxGeometry x="40" width="160" height="30" as="geometry">
            <mxRectangle width="160" height="30" as="alternateBounds" />
          </mxGeometry>
        </mxCell>
        <mxCell id="_2EZ7THMiR9m6lI002ey-32" value="" style="shape=tableRow;horizontal=0;startSize=0;swimlaneHead=0;swimlaneBody=0;fillColor=none;collapsible=0;dropTarget=0;points=[[0,0.5],[1,0.5]];portConstraint=eastwest;top=0;left=0;right=0;bottom=0;fontFamily=Helvetica;fontSize=12;" parent="_2EZ7THMiR9m6lI002ey-25" vertex="1">
          <mxGeometry y="90" width="200" height="30" as="geometry" />
        </mxCell>
        <mxCell id="_2EZ7THMiR9m6lI002ey-33" value="FK" style="shape=partialRectangle;connectable=0;fillColor=none;top=0;left=0;bottom=0;right=0;editable=1;overflow=hidden;whiteSpace=wrap;html=1;fontFamily=Helvetica;fontSize=12;" parent="_2EZ7THMiR9m6lI002ey-32" vertex="1">
          <mxGeometry width="40" height="30" as="geometry">
            <mxRectangle width="40" height="30" as="alternateBounds" />
          </mxGeometry>
        </mxCell>
        <mxCell id="_2EZ7THMiR9m6lI002ey-34" value="material_id" style="shape=partialRectangle;connectable=0;fillColor=none;top=0;left=0;bottom=0;right=0;align=left;spacingLeft=6;overflow=hidden;whiteSpace=wrap;html=1;fontFamily=Helvetica;fontSize=12;" parent="_2EZ7THMiR9m6lI002ey-32" vertex="1">
          <mxGeometry x="40" width="160" height="30" as="geometry">
            <mxRectangle width="160" height="30" as="alternateBounds" />
          </mxGeometry>
        </mxCell>
        <mxCell id="_2EZ7THMiR9m6lI002ey-35" value="" style="shape=tableRow;horizontal=0;startSize=0;swimlaneHead=0;swimlaneBody=0;fillColor=none;collapsible=0;dropTarget=0;points=[[0,0.5],[1,0.5]];portConstraint=eastwest;top=0;left=0;right=0;bottom=0;fontFamily=Helvetica;fontSize=12;" parent="_2EZ7THMiR9m6lI002ey-25" vertex="1">
          <mxGeometry y="120" width="200" height="30" as="geometry" />
        </mxCell>
        <mxCell id="_2EZ7THMiR9m6lI002ey-36" value="" style="shape=partialRectangle;connectable=0;fillColor=none;top=0;left=0;bottom=0;right=0;editable=1;overflow=hidden;whiteSpace=wrap;html=1;fontFamily=Helvetica;fontSize=12;" parent="_2EZ7THMiR9m6lI002ey-35" vertex="1">
          <mxGeometry width="40" height="30" as="geometry">
            <mxRectangle width="40" height="30" as="alternateBounds" />
          </mxGeometry>
        </mxCell>
        <mxCell id="_2EZ7THMiR9m6lI002ey-37" value="" style="shape=partialRectangle;connectable=0;fillColor=none;top=0;left=0;bottom=0;right=0;align=left;spacingLeft=6;overflow=hidden;whiteSpace=wrap;html=1;fontFamily=Helvetica;fontSize=12;" parent="_2EZ7THMiR9m6lI002ey-35" vertex="1">
          <mxGeometry x="40" width="160" height="30" as="geometry">
            <mxRectangle width="160" height="30" as="alternateBounds" />
          </mxGeometry>
        </mxCell>
        <mxCell id="_2EZ7THMiR9m6lI002ey-38" value="item_quantity" style="shape=partialRectangle;connectable=0;fillColor=none;top=0;left=0;bottom=0;right=0;align=left;spacingLeft=6;overflow=hidden;whiteSpace=wrap;html=1;fontFamily=Helvetica;fontSize=12;" parent="1" vertex="1">
          <mxGeometry x="1220" y="-120" width="160" height="30" as="geometry">
            <mxRectangle width="160" height="30" as="alternateBounds" />
          </mxGeometry>
        </mxCell>
        <mxCell id="_2EZ7THMiR9m6lI002ey-43" value="" style="fontSize=12;html=1;endArrow=ERzeroToMany;startArrow=ERmandOne;rounded=0;entryX=-0.002;entryY=0.653;entryDx=0;entryDy=0;entryPerimeter=0;" parent="1" target="_2EZ7THMiR9m6lI002ey-29" edge="1">
          <mxGeometry width="100" height="100" relative="1" as="geometry">
            <mxPoint x="1062" y="-160" as="sourcePoint" />
            <mxPoint x="1290" y="-260" as="targetPoint" />
          </mxGeometry>
        </mxCell>
        <mxCell id="_2EZ7THMiR9m6lI002ey-44" value="" style="fontSize=12;html=1;endArrow=ERzeroToMany;startArrow=ERmandOne;rounded=0;exitX=0;exitY=0.667;exitDx=0;exitDy=0;exitPerimeter=0;entryX=1.008;entryY=0.665;entryDx=0;entryDy=0;entryPerimeter=0;" parent="1" source="stontRHDnFcF5iVTPhwj-247" target="_2EZ7THMiR9m6lI002ey-29" edge="1">
          <mxGeometry width="100" height="100" relative="1" as="geometry">
            <mxPoint x="1450" y="-130" as="sourcePoint" />
            <mxPoint x="1510" y="-160" as="targetPoint" />
          </mxGeometry>
        </mxCell>
        <mxCell id="CUQYdAmPZnKUTS0YLWoH-30" value="" style="fontSize=12;html=1;endArrow=ERzeroToMany;startArrow=ERmandOne;rounded=0;exitX=0.5;exitY=1;exitDx=0;exitDy=0;entryX=0.5;entryY=0;entryDx=0;entryDy=0;" parent="1" source="bew7H7eXBtvLtZtFgnXy-2" target="stontRHDnFcF5iVTPhwj-83" edge="1">
          <mxGeometry width="100" height="100" relative="1" as="geometry">
            <mxPoint x="1130" y="1130" as="sourcePoint" />
            <mxPoint x="1200" y="1120" as="targetPoint" />
          </mxGeometry>
        </mxCell>
        <mxCell id="Gdu6vCptOesdF768dHJw-1" value="Tool Borrow Return" style="shape=table;startSize=30;container=1;collapsible=1;childLayout=tableLayout;fixedRows=1;rowLines=0;fontStyle=1;align=center;resizeLast=1;html=1;" vertex="1" parent="1">
          <mxGeometry x="120" y="480" width="200" height="230" as="geometry" />
        </mxCell>
        <mxCell id="Gdu6vCptOesdF768dHJw-2" value="" style="shape=tableRow;horizontal=0;startSize=0;swimlaneHead=0;swimlaneBody=0;fillColor=none;collapsible=0;dropTarget=0;points=[[0,0.5],[1,0.5]];portConstraint=eastwest;top=0;left=0;right=0;bottom=1;" vertex="1" parent="Gdu6vCptOesdF768dHJw-1">
          <mxGeometry y="30" width="200" height="30" as="geometry" />
        </mxCell>
        <mxCell id="Gdu6vCptOesdF768dHJw-3" value="PK" style="shape=partialRectangle;connectable=0;fillColor=none;top=0;left=0;bottom=0;right=0;fontStyle=1;overflow=hidden;whiteSpace=wrap;html=1;" vertex="1" parent="Gdu6vCptOesdF768dHJw-2">
          <mxGeometry width="30" height="30" as="geometry">
            <mxRectangle width="30" height="30" as="alternateBounds" />
          </mxGeometry>
        </mxCell>
        <mxCell id="Gdu6vCptOesdF768dHJw-4" value="tool_return_id" style="shape=partialRectangle;connectable=0;fillColor=none;top=0;left=0;bottom=0;right=0;align=left;spacingLeft=6;fontStyle=5;overflow=hidden;whiteSpace=wrap;html=1;" vertex="1" parent="Gdu6vCptOesdF768dHJw-2">
          <mxGeometry x="30" width="170" height="30" as="geometry">
            <mxRectangle width="170" height="30" as="alternateBounds" />
          </mxGeometry>
        </mxCell>
        <mxCell id="Gdu6vCptOesdF768dHJw-5" value="" style="shape=tableRow;horizontal=0;startSize=0;swimlaneHead=0;swimlaneBody=0;fillColor=none;collapsible=0;dropTarget=0;points=[[0,0.5],[1,0.5]];portConstraint=eastwest;top=0;left=0;right=0;bottom=0;" vertex="1" parent="Gdu6vCptOesdF768dHJw-1">
          <mxGeometry y="60" width="200" height="30" as="geometry" />
        </mxCell>
        <mxCell id="Gdu6vCptOesdF768dHJw-6" value="FK" style="shape=partialRectangle;connectable=0;fillColor=none;top=0;left=0;bottom=0;right=0;editable=1;overflow=hidden;whiteSpace=wrap;html=1;" vertex="1" parent="Gdu6vCptOesdF768dHJw-5">
          <mxGeometry width="30" height="30" as="geometry">
            <mxRectangle width="30" height="30" as="alternateBounds" />
          </mxGeometry>
        </mxCell>
        <mxCell id="Gdu6vCptOesdF768dHJw-7" value="tool_borrow_id" style="shape=partialRectangle;connectable=0;fillColor=none;top=0;left=0;bottom=0;right=0;align=left;spacingLeft=6;overflow=hidden;whiteSpace=wrap;html=1;" vertex="1" parent="Gdu6vCptOesdF768dHJw-5">
          <mxGeometry x="30" width="170" height="30" as="geometry">
            <mxRectangle width="170" height="30" as="alternateBounds" />
          </mxGeometry>
        </mxCell>
        <mxCell id="Gdu6vCptOesdF768dHJw-8" value="" style="shape=tableRow;horizontal=0;startSize=0;swimlaneHead=0;swimlaneBody=0;fillColor=none;collapsible=0;dropTarget=0;points=[[0,0.5],[1,0.5]];portConstraint=eastwest;top=0;left=0;right=0;bottom=0;" vertex="1" parent="Gdu6vCptOesdF768dHJw-1">
          <mxGeometry y="90" width="200" height="30" as="geometry" />
        </mxCell>
        <mxCell id="Gdu6vCptOesdF768dHJw-9" value="" style="shape=partialRectangle;connectable=0;fillColor=none;top=0;left=0;bottom=0;right=0;editable=1;overflow=hidden;whiteSpace=wrap;html=1;" vertex="1" parent="Gdu6vCptOesdF768dHJw-8">
          <mxGeometry width="30" height="30" as="geometry">
            <mxRectangle width="30" height="30" as="alternateBounds" />
          </mxGeometry>
        </mxCell>
        <mxCell id="Gdu6vCptOesdF768dHJw-10" value="tool_return_date" style="shape=partialRectangle;connectable=0;fillColor=none;top=0;left=0;bottom=0;right=0;align=left;spacingLeft=6;overflow=hidden;whiteSpace=wrap;html=1;" vertex="1" parent="Gdu6vCptOesdF768dHJw-8">
          <mxGeometry x="30" width="170" height="30" as="geometry">
            <mxRectangle width="170" height="30" as="alternateBounds" />
          </mxGeometry>
        </mxCell>
        <mxCell id="Gdu6vCptOesdF768dHJw-11" value="" style="shape=tableRow;horizontal=0;startSize=0;swimlaneHead=0;swimlaneBody=0;fillColor=none;collapsible=0;dropTarget=0;points=[[0,0.5],[1,0.5]];portConstraint=eastwest;top=0;left=0;right=0;bottom=0;" vertex="1" parent="Gdu6vCptOesdF768dHJw-1">
          <mxGeometry y="120" width="200" height="30" as="geometry" />
        </mxCell>
        <mxCell id="Gdu6vCptOesdF768dHJw-12" value="" style="shape=partialRectangle;connectable=0;fillColor=none;top=0;left=0;bottom=0;right=0;editable=1;overflow=hidden;whiteSpace=wrap;html=1;" vertex="1" parent="Gdu6vCptOesdF768dHJw-11">
          <mxGeometry width="30" height="30" as="geometry">
            <mxRectangle width="30" height="30" as="alternateBounds" />
          </mxGeometry>
        </mxCell>
        <mxCell id="Gdu6vCptOesdF768dHJw-13" value="tool_condition (ok / damaged)" style="shape=partialRectangle;connectable=0;fillColor=none;top=0;left=0;bottom=0;right=0;align=left;spacingLeft=6;overflow=hidden;whiteSpace=wrap;html=1;" vertex="1" parent="Gdu6vCptOesdF768dHJw-11">
          <mxGeometry x="30" width="170" height="30" as="geometry">
            <mxRectangle width="170" height="30" as="alternateBounds" />
          </mxGeometry>
        </mxCell>
        <mxCell id="Gdu6vCptOesdF768dHJw-15" value="warehouse_street_number" style="shape=partialRectangle;connectable=0;fillColor=none;top=0;left=0;bottom=0;right=0;align=left;spacingLeft=6;overflow=hidden;whiteSpace=wrap;html=1;fontFamily=Helvetica;fontSize=12;" vertex="1" parent="1">
          <mxGeometry x="900" y="-90" width="160" height="30" as="geometry">
            <mxRectangle width="160" height="30" as="alternateBounds" />
          </mxGeometry>
        </mxCell>
        <mxCell id="Gdu6vCptOesdF768dHJw-16" value="warehouse_phone_number" style="shape=partialRectangle;connectable=0;fillColor=none;top=0;left=0;bottom=0;right=0;align=left;spacingLeft=6;overflow=hidden;whiteSpace=wrap;html=1;fontFamily=Helvetica;fontSize=12;" vertex="1" parent="1">
          <mxGeometry x="900" y="-60" width="160" height="30" as="geometry">
            <mxRectangle width="160" height="30" as="alternateBounds" />
          </mxGeometry>
        </mxCell>
        <mxCell id="Gdu6vCptOesdF768dHJw-17" value="project_start_date" style="shape=partialRectangle;connectable=0;fillColor=none;top=0;left=0;bottom=0;right=0;align=left;spacingLeft=6;overflow=hidden;whiteSpace=wrap;html=1;fontFamily=Helvetica;fontSize=12;" vertex="1" parent="1">
          <mxGeometry x="1440" y="980" width="160" height="30" as="geometry">
            <mxRectangle width="160" height="30" as="alternateBounds" />
          </mxGeometry>
        </mxCell>
        <mxCell id="Gdu6vCptOesdF768dHJw-18" value="project_street_number" style="shape=partialRectangle;connectable=0;fillColor=none;top=0;left=0;bottom=0;right=0;align=left;spacingLeft=6;overflow=hidden;whiteSpace=wrap;html=1;fontFamily=Helvetica;fontSize=12;" vertex="1" parent="1">
          <mxGeometry x="1440" y="950" width="160" height="30" as="geometry">
            <mxRectangle width="160" height="30" as="alternateBounds" />
          </mxGeometry>
        </mxCell>
        <mxCell id="Gdu6vCptOesdF768dHJw-35" value="note" style="shape=partialRectangle;connectable=0;fillColor=none;top=0;left=0;bottom=0;right=0;align=left;spacingLeft=6;overflow=hidden;whiteSpace=wrap;html=1;" vertex="1" parent="1">
          <mxGeometry x="150" y="630" width="170" height="30" as="geometry">
            <mxRectangle width="150" height="30" as="alternateBounds" />
          </mxGeometry>
        </mxCell>
        <mxCell id="Gdu6vCptOesdF768dHJw-36" value="" style="fontSize=12;html=1;endArrow=ERzeroToOne;startArrow=ERmandOne;rounded=0;entryX=1;entryY=0.5;entryDx=0;entryDy=0;exitX=0;exitY=0.5;exitDx=0;exitDy=0;" edge="1" parent="1">
          <mxGeometry width="100" height="100" relative="1" as="geometry">
            <mxPoint x="400" y="559.49" as="sourcePoint" />
            <mxPoint x="320" y="559.49" as="targetPoint" />
          </mxGeometry>
        </mxCell>
        <mxCell id="Gdu6vCptOesdF768dHJw-38" value="Vehicle Borrow Return" style="shape=table;startSize=30;container=1;collapsible=1;childLayout=tableLayout;fixedRows=1;rowLines=0;fontStyle=1;align=center;resizeLast=1;html=1;fontFamily=Helvetica;fontSize=12;" vertex="1" parent="1">
          <mxGeometry x="1960" y="480" width="200" height="280" as="geometry">
            <mxRectangle x="200" y="320" width="110" height="30" as="alternateBounds" />
          </mxGeometry>
        </mxCell>
        <mxCell id="Gdu6vCptOesdF768dHJw-39" value="" style="shape=tableRow;horizontal=0;startSize=0;swimlaneHead=0;swimlaneBody=0;fillColor=none;collapsible=0;dropTarget=0;points=[[0,0.5],[1,0.5]];portConstraint=eastwest;top=0;left=0;right=0;bottom=1;fontFamily=Helvetica;fontSize=12;" vertex="1" parent="Gdu6vCptOesdF768dHJw-38">
          <mxGeometry y="30" width="200" height="30" as="geometry" />
        </mxCell>
        <mxCell id="Gdu6vCptOesdF768dHJw-40" value="PK" style="shape=partialRectangle;connectable=0;fillColor=none;top=0;left=0;bottom=0;right=0;fontStyle=1;overflow=hidden;whiteSpace=wrap;html=1;fontFamily=Helvetica;fontSize=12;" vertex="1" parent="Gdu6vCptOesdF768dHJw-39">
          <mxGeometry width="40" height="30" as="geometry">
            <mxRectangle width="40" height="30" as="alternateBounds" />
          </mxGeometry>
        </mxCell>
        <mxCell id="Gdu6vCptOesdF768dHJw-41" value="vehicle_return_id" style="shape=partialRectangle;connectable=0;fillColor=none;top=0;left=0;bottom=0;right=0;align=left;spacingLeft=6;fontStyle=5;overflow=hidden;whiteSpace=wrap;html=1;fontFamily=Helvetica;fontSize=12;" vertex="1" parent="Gdu6vCptOesdF768dHJw-39">
          <mxGeometry x="40" width="160" height="30" as="geometry">
            <mxRectangle width="160" height="30" as="alternateBounds" />
          </mxGeometry>
        </mxCell>
        <mxCell id="Gdu6vCptOesdF768dHJw-42" value="" style="shape=tableRow;horizontal=0;startSize=0;swimlaneHead=0;swimlaneBody=0;fillColor=none;collapsible=0;dropTarget=0;points=[[0,0.5],[1,0.5]];portConstraint=eastwest;top=0;left=0;right=0;bottom=0;fontFamily=Helvetica;fontSize=12;" vertex="1" parent="Gdu6vCptOesdF768dHJw-38">
          <mxGeometry y="60" width="200" height="30" as="geometry" />
        </mxCell>
        <mxCell id="Gdu6vCptOesdF768dHJw-43" value="FK" style="shape=partialRectangle;connectable=0;fillColor=none;top=0;left=0;bottom=0;right=0;editable=1;overflow=hidden;whiteSpace=wrap;html=1;fontFamily=Helvetica;fontSize=12;" vertex="1" parent="Gdu6vCptOesdF768dHJw-42">
          <mxGeometry width="40" height="30" as="geometry">
            <mxRectangle width="40" height="30" as="alternateBounds" />
          </mxGeometry>
        </mxCell>
        <mxCell id="Gdu6vCptOesdF768dHJw-44" value="&lt;span&gt;vehicle_borrow_id&lt;/span&gt;" style="shape=partialRectangle;connectable=0;fillColor=none;top=0;left=0;bottom=0;right=0;align=left;spacingLeft=6;overflow=hidden;whiteSpace=wrap;html=1;fontFamily=Helvetica;fontSize=12;" vertex="1" parent="Gdu6vCptOesdF768dHJw-42">
          <mxGeometry x="40" width="160" height="30" as="geometry">
            <mxRectangle width="160" height="30" as="alternateBounds" />
          </mxGeometry>
        </mxCell>
        <mxCell id="Gdu6vCptOesdF768dHJw-45" value="" style="shape=tableRow;horizontal=0;startSize=0;swimlaneHead=0;swimlaneBody=0;fillColor=none;collapsible=0;dropTarget=0;points=[[0,0.5],[1,0.5]];portConstraint=eastwest;top=0;left=0;right=0;bottom=0;fontFamily=Helvetica;fontSize=12;" vertex="1" parent="Gdu6vCptOesdF768dHJw-38">
          <mxGeometry y="90" width="200" height="30" as="geometry" />
        </mxCell>
        <mxCell id="Gdu6vCptOesdF768dHJw-46" value="" style="shape=partialRectangle;connectable=0;fillColor=none;top=0;left=0;bottom=0;right=0;editable=1;overflow=hidden;whiteSpace=wrap;html=1;fontFamily=Helvetica;fontSize=12;" vertex="1" parent="Gdu6vCptOesdF768dHJw-45">
          <mxGeometry width="40" height="30" as="geometry">
            <mxRectangle width="40" height="30" as="alternateBounds" />
          </mxGeometry>
        </mxCell>
        <mxCell id="Gdu6vCptOesdF768dHJw-47" value="vehicle_return_date" style="shape=partialRectangle;connectable=0;fillColor=none;top=0;left=0;bottom=0;right=0;align=left;spacingLeft=6;overflow=hidden;whiteSpace=wrap;html=1;fontFamily=Helvetica;fontSize=12;" vertex="1" parent="Gdu6vCptOesdF768dHJw-45">
          <mxGeometry x="40" width="160" height="30" as="geometry">
            <mxRectangle width="160" height="30" as="alternateBounds" />
          </mxGeometry>
        </mxCell>
        <mxCell id="Gdu6vCptOesdF768dHJw-48" value="" style="shape=tableRow;horizontal=0;startSize=0;swimlaneHead=0;swimlaneBody=0;fillColor=none;collapsible=0;dropTarget=0;points=[[0,0.5],[1,0.5]];portConstraint=eastwest;top=0;left=0;right=0;bottom=0;fontFamily=Helvetica;fontSize=12;" vertex="1" parent="Gdu6vCptOesdF768dHJw-38">
          <mxGeometry y="120" width="200" height="30" as="geometry" />
        </mxCell>
        <mxCell id="Gdu6vCptOesdF768dHJw-49" value="" style="shape=partialRectangle;connectable=0;fillColor=none;top=0;left=0;bottom=0;right=0;editable=1;overflow=hidden;whiteSpace=wrap;html=1;fontFamily=Helvetica;fontSize=12;" vertex="1" parent="Gdu6vCptOesdF768dHJw-48">
          <mxGeometry width="40" height="30" as="geometry">
            <mxRectangle width="40" height="30" as="alternateBounds" />
          </mxGeometry>
        </mxCell>
        <mxCell id="Gdu6vCptOesdF768dHJw-50" value="end_kilometers" style="shape=partialRectangle;connectable=0;fillColor=none;top=0;left=0;bottom=0;right=0;align=left;spacingLeft=6;overflow=hidden;whiteSpace=wrap;html=1;fontFamily=Helvetica;fontSize=12;" vertex="1" parent="Gdu6vCptOesdF768dHJw-48">
          <mxGeometry x="40" width="160" height="30" as="geometry">
            <mxRectangle width="160" height="30" as="alternateBounds" />
          </mxGeometry>
        </mxCell>
        <mxCell id="Gdu6vCptOesdF768dHJw-52" value="vehicle_condition (ok / damaged)" style="shape=partialRectangle;connectable=0;fillColor=none;top=0;left=0;bottom=0;right=0;align=left;spacingLeft=6;overflow=hidden;whiteSpace=wrap;html=1;fontFamily=Helvetica;fontSize=12;" vertex="1" parent="1">
          <mxGeometry x="2000" y="630" width="160" height="40" as="geometry">
            <mxRectangle width="160" height="30" as="alternateBounds" />
          </mxGeometry>
        </mxCell>
        <mxCell id="Gdu6vCptOesdF768dHJw-54" value="note" style="shape=partialRectangle;connectable=0;fillColor=none;top=0;left=0;bottom=0;right=0;align=left;spacingLeft=6;overflow=hidden;whiteSpace=wrap;html=1;fontFamily=Helvetica;fontSize=12;" vertex="1" parent="1">
          <mxGeometry x="2000" y="670" width="160" height="30" as="geometry">
            <mxRectangle width="160" height="30" as="alternateBounds" />
          </mxGeometry>
        </mxCell>
        <mxCell id="Gdu6vCptOesdF768dHJw-58" value="" style="fontSize=12;html=1;endArrow=ERzeroToMany;startArrow=ERmandOne;rounded=0;exitX=0.5;exitY=0;exitDx=0;exitDy=0;entryX=0;entryY=0.667;entryDx=0;entryDy=0;entryPerimeter=0;" edge="1" parent="1" target="ATHe2Pa4KEvy1F1jvOFX-99">
          <mxGeometry width="100" height="100" relative="1" as="geometry">
            <mxPoint x="780" y="800" as="sourcePoint" />
            <mxPoint x="1670" y="560" as="targetPoint" />
            <Array as="points">
              <mxPoint x="780" y="560" />
              <mxPoint x="1240" y="560" />
            </Array>
          </mxGeometry>
        </mxCell>
        <mxCell id="Gdu6vCptOesdF768dHJw-59" value="" style="fontSize=12;html=1;endArrow=ERzeroToOne;startArrow=ERmandOne;rounded=0;" edge="1" parent="1">
          <mxGeometry width="100" height="100" relative="1" as="geometry">
            <mxPoint x="1880" y="560" as="sourcePoint" />
            <mxPoint x="1960" y="560" as="targetPoint" />
          </mxGeometry>
        </mxCell>
        <mxCell id="Gdu6vCptOesdF768dHJw-61" value="transport_start_time" style="shape=partialRectangle;connectable=0;fillColor=none;top=0;left=0;bottom=0;right=0;align=left;spacingLeft=6;overflow=hidden;whiteSpace=wrap;html=1;fontFamily=Helvetica;fontSize=12;" vertex="1" parent="1">
          <mxGeometry x="1440" y="308.5" width="160" height="30" as="geometry">
            <mxRectangle width="160" height="30" as="alternateBounds" />
          </mxGeometry>
        </mxCell>
        <mxCell id="Gdu6vCptOesdF768dHJw-64" value="" style="fontSize=12;html=1;endArrow=ERzeroToMany;startArrow=ERmandOne;rounded=0;entryX=0;entryY=0.7;entryDx=0;entryDy=0;entryPerimeter=0;" edge="1" parent="1" target="_2EZ7THMiR9m6lI002ey-15">
          <mxGeometry width="100" height="100" relative="1" as="geometry">
            <mxPoint x="1240" y="240" as="sourcePoint" />
            <mxPoint x="1390" y="160" as="targetPoint" />
            <Array as="points" />
          </mxGeometry>
        </mxCell>
        <mxCell id="Gdu6vCptOesdF768dHJw-65" value="" style="fontSize=12;html=1;endArrow=ERzeroToMany;startArrow=ERmandOne;rounded=0;entryX=0.5;entryY=0;entryDx=0;entryDy=0;" edge="1" parent="1" target="Gdu6vCptOesdF768dHJw-68">
          <mxGeometry width="100" height="100" relative="1" as="geometry">
            <mxPoint x="1380" y="-120" as="sourcePoint" />
            <mxPoint x="1780" y="40" as="targetPoint" />
            <Array as="points">
              <mxPoint x="1460" y="-120" />
              <mxPoint x="1500" y="-120" />
            </Array>
          </mxGeometry>
        </mxCell>
        <mxCell id="Gdu6vCptOesdF768dHJw-66" value="" style="fontSize=12;html=1;endArrow=ERzeroToMany;startArrow=ERmandOne;rounded=0;exitX=0.5;exitY=0;exitDx=0;exitDy=0;" edge="1" parent="1">
          <mxGeometry width="100" height="100" relative="1" as="geometry">
            <mxPoint x="840" y="800" as="sourcePoint" />
            <mxPoint x="1440" y="400" as="targetPoint" />
            <Array as="points">
              <mxPoint x="840" y="720" />
              <mxPoint x="1440" y="720" />
            </Array>
          </mxGeometry>
        </mxCell>
        <mxCell id="Gdu6vCptOesdF768dHJw-67" value="" style="fontSize=12;html=1;endArrow=ERzeroToMany;startArrow=ERmandOne;rounded=0;exitX=0.5;exitY=0;exitDx=0;exitDy=0;" edge="1" parent="1">
          <mxGeometry width="100" height="100" relative="1" as="geometry">
            <mxPoint x="1560" y="799" as="sourcePoint" />
            <mxPoint x="1560" y="400" as="targetPoint" />
            <Array as="points">
              <mxPoint x="1560" y="679" />
              <mxPoint x="1560" y="510" />
            </Array>
          </mxGeometry>
        </mxCell>
        <mxCell id="Gdu6vCptOesdF768dHJw-68" value="Material Transport Items" style="shape=table;startSize=30;container=1;collapsible=1;childLayout=tableLayout;fixedRows=1;rowLines=0;fontStyle=1;align=center;resizeLast=1;html=1;fontFamily=Helvetica;fontSize=12;" vertex="1" parent="1">
          <mxGeometry x="1410" y="-60" width="180" height="160" as="geometry" />
        </mxCell>
        <mxCell id="Gdu6vCptOesdF768dHJw-69" value="" style="shape=tableRow;horizontal=0;startSize=0;swimlaneHead=0;swimlaneBody=0;fillColor=none;collapsible=0;dropTarget=0;points=[[0,0.5],[1,0.5]];portConstraint=eastwest;top=0;left=0;right=0;bottom=1;fontFamily=Helvetica;fontSize=12;" vertex="1" parent="Gdu6vCptOesdF768dHJw-68">
          <mxGeometry y="30" width="180" height="30" as="geometry" />
        </mxCell>
        <mxCell id="Gdu6vCptOesdF768dHJw-70" value="PK" style="shape=partialRectangle;connectable=0;fillColor=none;top=0;left=0;bottom=0;right=0;fontStyle=1;overflow=hidden;whiteSpace=wrap;html=1;fontFamily=Helvetica;fontSize=12;" vertex="1" parent="Gdu6vCptOesdF768dHJw-69">
          <mxGeometry width="40" height="30" as="geometry">
            <mxRectangle width="40" height="30" as="alternateBounds" />
          </mxGeometry>
        </mxCell>
        <mxCell id="Gdu6vCptOesdF768dHJw-71" value="transported_item_id" style="shape=partialRectangle;connectable=0;fillColor=none;top=0;left=0;bottom=0;right=0;align=left;spacingLeft=6;fontStyle=5;overflow=hidden;whiteSpace=wrap;html=1;fontFamily=Helvetica;fontSize=12;" vertex="1" parent="Gdu6vCptOesdF768dHJw-69">
          <mxGeometry x="40" width="140" height="30" as="geometry">
            <mxRectangle width="140" height="30" as="alternateBounds" />
          </mxGeometry>
        </mxCell>
        <mxCell id="Gdu6vCptOesdF768dHJw-72" value="" style="shape=tableRow;horizontal=0;startSize=0;swimlaneHead=0;swimlaneBody=0;fillColor=none;collapsible=0;dropTarget=0;points=[[0,0.5],[1,0.5]];portConstraint=eastwest;top=0;left=0;right=0;bottom=0;fontFamily=Helvetica;fontSize=12;" vertex="1" parent="Gdu6vCptOesdF768dHJw-68">
          <mxGeometry y="60" width="180" height="30" as="geometry" />
        </mxCell>
        <mxCell id="Gdu6vCptOesdF768dHJw-73" value="FK" style="shape=partialRectangle;connectable=0;fillColor=none;top=0;left=0;bottom=0;right=0;editable=1;overflow=hidden;whiteSpace=wrap;html=1;fontFamily=Helvetica;fontSize=12;" vertex="1" parent="Gdu6vCptOesdF768dHJw-72">
          <mxGeometry width="40" height="30" as="geometry">
            <mxRectangle width="40" height="30" as="alternateBounds" />
          </mxGeometry>
        </mxCell>
        <mxCell id="Gdu6vCptOesdF768dHJw-74" value="transport_id" style="shape=partialRectangle;connectable=0;fillColor=none;top=0;left=0;bottom=0;right=0;align=left;spacingLeft=6;overflow=hidden;whiteSpace=wrap;html=1;fontFamily=Helvetica;fontSize=12;" vertex="1" parent="Gdu6vCptOesdF768dHJw-72">
          <mxGeometry x="40" width="140" height="30" as="geometry">
            <mxRectangle width="140" height="30" as="alternateBounds" />
          </mxGeometry>
        </mxCell>
        <mxCell id="Gdu6vCptOesdF768dHJw-75" value="" style="shape=tableRow;horizontal=0;startSize=0;swimlaneHead=0;swimlaneBody=0;fillColor=none;collapsible=0;dropTarget=0;points=[[0,0.5],[1,0.5]];portConstraint=eastwest;top=0;left=0;right=0;bottom=0;fontFamily=Helvetica;fontSize=12;" vertex="1" parent="Gdu6vCptOesdF768dHJw-68">
          <mxGeometry y="90" width="180" height="30" as="geometry" />
        </mxCell>
        <mxCell id="Gdu6vCptOesdF768dHJw-76" value="FK" style="shape=partialRectangle;connectable=0;fillColor=none;top=0;left=0;bottom=0;right=0;editable=1;overflow=hidden;whiteSpace=wrap;html=1;fontFamily=Helvetica;fontSize=12;" vertex="1" parent="Gdu6vCptOesdF768dHJw-75">
          <mxGeometry width="40" height="30" as="geometry">
            <mxRectangle width="40" height="30" as="alternateBounds" />
          </mxGeometry>
        </mxCell>
        <mxCell id="Gdu6vCptOesdF768dHJw-77" value="warehouse_item_id" style="shape=partialRectangle;connectable=0;fillColor=none;top=0;left=0;bottom=0;right=0;align=left;spacingLeft=6;overflow=hidden;whiteSpace=wrap;html=1;fontFamily=Helvetica;fontSize=12;" vertex="1" parent="Gdu6vCptOesdF768dHJw-75">
          <mxGeometry x="40" width="140" height="30" as="geometry">
            <mxRectangle width="140" height="30" as="alternateBounds" />
          </mxGeometry>
        </mxCell>
        <mxCell id="Gdu6vCptOesdF768dHJw-78" value="" style="shape=tableRow;horizontal=0;startSize=0;swimlaneHead=0;swimlaneBody=0;fillColor=none;collapsible=0;dropTarget=0;points=[[0,0.5],[1,0.5]];portConstraint=eastwest;top=0;left=0;right=0;bottom=0;fontFamily=Helvetica;fontSize=12;" vertex="1" parent="Gdu6vCptOesdF768dHJw-68">
          <mxGeometry y="120" width="180" height="30" as="geometry" />
        </mxCell>
        <mxCell id="Gdu6vCptOesdF768dHJw-79" value="" style="shape=partialRectangle;connectable=0;fillColor=none;top=0;left=0;bottom=0;right=0;editable=1;overflow=hidden;whiteSpace=wrap;html=1;fontFamily=Helvetica;fontSize=12;" vertex="1" parent="Gdu6vCptOesdF768dHJw-78">
          <mxGeometry width="40" height="30" as="geometry">
            <mxRectangle width="40" height="30" as="alternateBounds" />
          </mxGeometry>
        </mxCell>
        <mxCell id="Gdu6vCptOesdF768dHJw-80" value="transported_quantity" style="shape=partialRectangle;connectable=0;fillColor=none;top=0;left=0;bottom=0;right=0;align=left;spacingLeft=6;overflow=hidden;whiteSpace=wrap;html=1;fontFamily=Helvetica;fontSize=12;" vertex="1" parent="Gdu6vCptOesdF768dHJw-78">
          <mxGeometry x="40" width="140" height="30" as="geometry">
            <mxRectangle width="140" height="30" as="alternateBounds" />
          </mxGeometry>
        </mxCell>
        <mxCell id="Gdu6vCptOesdF768dHJw-86" value="" style="fontSize=12;html=1;endArrow=ERoneToMany;startArrow=ERmandOne;rounded=0;entryX=0.5;entryY=1;entryDx=0;entryDy=0;exitX=0.5;exitY=0;exitDx=0;exitDy=0;" edge="1" parent="1" source="_2EZ7THMiR9m6lI002ey-11" target="Gdu6vCptOesdF768dHJw-68">
          <mxGeometry width="100" height="100" relative="1" as="geometry">
            <mxPoint x="1500" y="150" as="sourcePoint" />
            <mxPoint x="1550" y="110" as="targetPoint" />
          </mxGeometry>
        </mxCell>
        <mxCell id="Gdu6vCptOesdF768dHJw-87" value="note" style="shape=partialRectangle;connectable=0;fillColor=none;top=0;left=0;bottom=0;right=0;align=left;spacingLeft=6;overflow=hidden;whiteSpace=wrap;html=1;fontFamily=Helvetica;fontSize=12;" vertex="1" parent="1">
          <mxGeometry x="440" y="690" width="160" height="30" as="geometry">
            <mxRectangle width="160" height="30" as="alternateBounds" />
          </mxGeometry>
        </mxCell>
        <mxCell id="Gdu6vCptOesdF768dHJw-88" value="note" style="shape=partialRectangle;connectable=0;fillColor=none;top=0;left=0;bottom=0;right=0;align=left;spacingLeft=6;overflow=hidden;whiteSpace=wrap;html=1;fontFamily=Helvetica;fontSize=12;" vertex="1" parent="1">
          <mxGeometry x="1440" y="368.5" width="160" height="30" as="geometry">
            <mxRectangle width="160" height="30" as="alternateBounds" />
          </mxGeometry>
        </mxCell>
        <mxCell id="Gdu6vCptOesdF768dHJw-89" value="employee_id" style="shape=partialRectangle;connectable=0;fillColor=none;top=0;left=0;bottom=0;right=0;align=left;spacingLeft=6;overflow=hidden;whiteSpace=wrap;html=1;fontFamily=Helvetica;fontSize=12;" vertex="1" parent="1">
          <mxGeometry x="1440" y="1150" width="160" height="30" as="geometry">
            <mxRectangle width="160" height="30" as="alternateBounds" />
          </mxGeometry>
        </mxCell>
        <mxCell id="Gdu6vCptOesdF768dHJw-90" value="FK" style="shape=partialRectangle;connectable=0;fillColor=none;top=0;left=0;bottom=0;right=0;editable=1;overflow=hidden;whiteSpace=wrap;html=1;fontFamily=Helvetica;fontSize=12;" vertex="1" parent="1">
          <mxGeometry x="1400" y="1150" width="40" height="30" as="geometry">
            <mxRectangle width="40" height="30" as="alternateBounds" />
          </mxGeometry>
        </mxCell>
        <mxCell id="Gdu6vCptOesdF768dHJw-91" value="" style="fontSize=12;html=1;endArrow=ERzeroToOne;startArrow=ERmandOne;rounded=0;" edge="1" parent="1">
          <mxGeometry width="100" height="100" relative="1" as="geometry">
            <mxPoint x="720" y="1080" as="sourcePoint" />
            <mxPoint x="1500" y="1200" as="targetPoint" />
            <Array as="points">
              <mxPoint x="720" y="1460" />
              <mxPoint x="1110" y="1460" />
              <mxPoint x="1500" y="1460" />
            </Array>
          </mxGeometry>
        </mxCell>
        <mxCell id="Gdu6vCptOesdF768dHJw-92" value="start_kilometers" style="shape=partialRectangle;connectable=0;fillColor=none;top=0;left=0;bottom=0;right=0;align=left;spacingLeft=6;overflow=hidden;whiteSpace=wrap;html=1;fontFamily=Helvetica;fontSize=12;" vertex="1" parent="1">
          <mxGeometry x="1440" y="338.5" width="160" height="30" as="geometry">
            <mxRectangle width="160" height="30" as="alternateBounds" />
          </mxGeometry>
        </mxCell>
        <mxCell id="Gdu6vCptOesdF768dHJw-93" value="Material Transport End" style="shape=table;startSize=30;container=1;collapsible=1;childLayout=tableLayout;fixedRows=1;rowLines=0;fontStyle=1;align=center;resizeLast=1;html=1;fontFamily=Helvetica;fontSize=12;" vertex="1" parent="1">
          <mxGeometry x="1680" y="159.5" width="200" height="240" as="geometry" />
        </mxCell>
        <mxCell id="Gdu6vCptOesdF768dHJw-94" value="" style="shape=tableRow;horizontal=0;startSize=0;swimlaneHead=0;swimlaneBody=0;fillColor=none;collapsible=0;dropTarget=0;points=[[0,0.5],[1,0.5]];portConstraint=eastwest;top=0;left=0;right=0;bottom=1;fontFamily=Helvetica;fontSize=12;" vertex="1" parent="Gdu6vCptOesdF768dHJw-93">
          <mxGeometry y="30" width="200" height="30" as="geometry" />
        </mxCell>
        <mxCell id="Gdu6vCptOesdF768dHJw-95" value="PK" style="shape=partialRectangle;connectable=0;fillColor=none;top=0;left=0;bottom=0;right=0;fontStyle=1;overflow=hidden;whiteSpace=wrap;html=1;fontFamily=Helvetica;fontSize=12;" vertex="1" parent="Gdu6vCptOesdF768dHJw-94">
          <mxGeometry width="40" height="30" as="geometry">
            <mxRectangle width="40" height="30" as="alternateBounds" />
          </mxGeometry>
        </mxCell>
        <mxCell id="Gdu6vCptOesdF768dHJw-96" value="transport_end_id" style="shape=partialRectangle;connectable=0;fillColor=none;top=0;left=0;bottom=0;right=0;align=left;spacingLeft=6;fontStyle=5;overflow=hidden;whiteSpace=wrap;html=1;fontFamily=Helvetica;fontSize=12;" vertex="1" parent="Gdu6vCptOesdF768dHJw-94">
          <mxGeometry x="40" width="160" height="30" as="geometry">
            <mxRectangle width="160" height="30" as="alternateBounds" />
          </mxGeometry>
        </mxCell>
        <mxCell id="Gdu6vCptOesdF768dHJw-97" value="" style="shape=tableRow;horizontal=0;startSize=0;swimlaneHead=0;swimlaneBody=0;fillColor=none;collapsible=0;dropTarget=0;points=[[0,0.5],[1,0.5]];portConstraint=eastwest;top=0;left=0;right=0;bottom=0;fontFamily=Helvetica;fontSize=12;" vertex="1" parent="Gdu6vCptOesdF768dHJw-93">
          <mxGeometry y="60" width="200" height="30" as="geometry" />
        </mxCell>
        <mxCell id="Gdu6vCptOesdF768dHJw-98" value="FK" style="shape=partialRectangle;connectable=0;fillColor=none;top=0;left=0;bottom=0;right=0;editable=1;overflow=hidden;whiteSpace=wrap;html=1;fontFamily=Helvetica;fontSize=12;" vertex="1" parent="Gdu6vCptOesdF768dHJw-97">
          <mxGeometry width="40" height="30" as="geometry">
            <mxRectangle width="40" height="30" as="alternateBounds" />
          </mxGeometry>
        </mxCell>
        <mxCell id="Gdu6vCptOesdF768dHJw-99" value="transport_start_id" style="shape=partialRectangle;connectable=0;fillColor=none;top=0;left=0;bottom=0;right=0;align=left;spacingLeft=6;overflow=hidden;whiteSpace=wrap;html=1;fontFamily=Helvetica;fontSize=12;" vertex="1" parent="Gdu6vCptOesdF768dHJw-97">
          <mxGeometry x="40" width="160" height="30" as="geometry">
            <mxRectangle width="160" height="30" as="alternateBounds" />
          </mxGeometry>
        </mxCell>
        <mxCell id="Gdu6vCptOesdF768dHJw-100" value="" style="shape=tableRow;horizontal=0;startSize=0;swimlaneHead=0;swimlaneBody=0;fillColor=none;collapsible=0;dropTarget=0;points=[[0,0.5],[1,0.5]];portConstraint=eastwest;top=0;left=0;right=0;bottom=0;fontFamily=Helvetica;fontSize=12;" vertex="1" parent="Gdu6vCptOesdF768dHJw-93">
          <mxGeometry y="90" width="200" height="30" as="geometry" />
        </mxCell>
        <mxCell id="Gdu6vCptOesdF768dHJw-101" value="" style="shape=partialRectangle;connectable=0;fillColor=none;top=0;left=0;bottom=0;right=0;editable=1;overflow=hidden;whiteSpace=wrap;html=1;fontFamily=Helvetica;fontSize=12;" vertex="1" parent="Gdu6vCptOesdF768dHJw-100">
          <mxGeometry width="40" height="30" as="geometry">
            <mxRectangle width="40" height="30" as="alternateBounds" />
          </mxGeometry>
        </mxCell>
        <mxCell id="Gdu6vCptOesdF768dHJw-102" value="transport_end_time" style="shape=partialRectangle;connectable=0;fillColor=none;top=0;left=0;bottom=0;right=0;align=left;spacingLeft=6;overflow=hidden;whiteSpace=wrap;html=1;fontFamily=Helvetica;fontSize=12;" vertex="1" parent="Gdu6vCptOesdF768dHJw-100">
          <mxGeometry x="40" width="160" height="30" as="geometry">
            <mxRectangle width="160" height="30" as="alternateBounds" />
          </mxGeometry>
        </mxCell>
        <mxCell id="Gdu6vCptOesdF768dHJw-103" value="" style="shape=tableRow;horizontal=0;startSize=0;swimlaneHead=0;swimlaneBody=0;fillColor=none;collapsible=0;dropTarget=0;points=[[0,0.5],[1,0.5]];portConstraint=eastwest;top=0;left=0;right=0;bottom=0;fontFamily=Helvetica;fontSize=12;" vertex="1" parent="Gdu6vCptOesdF768dHJw-93">
          <mxGeometry y="120" width="200" height="30" as="geometry" />
        </mxCell>
        <mxCell id="Gdu6vCptOesdF768dHJw-104" value="" style="shape=partialRectangle;connectable=0;fillColor=none;top=0;left=0;bottom=0;right=0;editable=1;overflow=hidden;whiteSpace=wrap;html=1;fontFamily=Helvetica;fontSize=12;" vertex="1" parent="Gdu6vCptOesdF768dHJw-103">
          <mxGeometry width="40" height="30" as="geometry">
            <mxRectangle width="40" height="30" as="alternateBounds" />
          </mxGeometry>
        </mxCell>
        <mxCell id="Gdu6vCptOesdF768dHJw-105" value="end_kilometers" style="shape=partialRectangle;connectable=0;fillColor=none;top=0;left=0;bottom=0;right=0;align=left;spacingLeft=6;overflow=hidden;whiteSpace=wrap;html=1;fontFamily=Helvetica;fontSize=12;" vertex="1" parent="Gdu6vCptOesdF768dHJw-103">
          <mxGeometry x="40" width="160" height="30" as="geometry">
            <mxRectangle width="160" height="30" as="alternateBounds" />
          </mxGeometry>
        </mxCell>
        <mxCell id="Gdu6vCptOesdF768dHJw-107" value="note" style="shape=partialRectangle;connectable=0;fillColor=none;top=0;left=0;bottom=0;right=0;align=left;spacingLeft=6;overflow=hidden;whiteSpace=wrap;html=1;fontFamily=Helvetica;fontSize=12;" vertex="1" parent="1">
          <mxGeometry x="1720" y="349" width="160" height="30" as="geometry">
            <mxRectangle width="160" height="30" as="alternateBounds" />
          </mxGeometry>
        </mxCell>
        <mxCell id="Gdu6vCptOesdF768dHJw-109" value="" style="fontSize=12;html=1;endArrow=ERzeroToOne;startArrow=ERmandOne;rounded=0;" edge="1" parent="1">
          <mxGeometry width="100" height="100" relative="1" as="geometry">
            <mxPoint x="1600" y="239.73" as="sourcePoint" />
            <mxPoint x="1680" y="239.73" as="targetPoint" />
          </mxGeometry>
        </mxCell>
        <mxCell id="Gdu6vCptOesdF768dHJw-110" value="vehicle_condition (ok / damaged)" style="shape=partialRectangle;connectable=0;fillColor=none;top=0;left=0;bottom=0;right=0;align=left;spacingLeft=6;overflow=hidden;whiteSpace=wrap;html=1;fontFamily=Helvetica;fontSize=12;" vertex="1" parent="1">
          <mxGeometry x="1720" y="308.5" width="160" height="40" as="geometry">
            <mxRectangle width="160" height="30" as="alternateBounds" />
          </mxGeometry>
        </mxCell>
      </root>
    </mxGraphModel>
  </diagram>
</mxfile>
